<?xml version="1.0" encoding="utf-8"?>
<!-- Generator: Adobe Illustrator 16.0.4, SVG Export Plug-In . SVG Version: 6.00 Build 0)  -->
<!DOCTYPE svg PUBLIC "-//W3C//DTD SVG 1.1//EN" "http://www.w3.org/Graphics/SVG/1.1/DTD/svg11.dtd">
<svg version="1.1" id="Layer_1" xmlns="http://www.w3.org/2000/svg" xmlns:xlink="http://www.w3.org/1999/xlink" x="0px" y="0px"
	 width="40px" height="38px" viewBox="0 0 40 38" enable-background="new 0 0 40 38" xml:space="preserve">
<path d="M38.146,0H1.856C0.832,0,0,0.847,0,1.889v27.633c0,1.041,0.832,1.888,1.856,1.888h12.923l-1.577,4.784
	C12.773,37.287,13.021,38,15.335,38h5.02l0,0h5.021c2.313,0,2.561-0.713,2.132-1.807l-1.578-4.784h12.217
	c1.021,0,1.854-0.847,1.854-1.888V1.889C40,0.847,39.167,0,38.146,0z"/>
<circle fill="#FFFFFF" cx="20.001" cy="28.836" r="1.223"/>
<path fill="#FFFFFF" d="M37.382,25.889H2.618V3.429c0-0.64,0.516-1.161,1.148-1.161h32.465c0.635,0,1.15,0.521,1.15,1.161V25.889z"
	/>
<g>
	<path d="M31.639,16.335l-3.419-4.708c-0.097-0.132-0.25-0.211-0.414-0.211s-0.317,0.079-0.414,0.211l-3.421,4.708
		c-0.112,0.156-0.129,0.362-0.041,0.533c0.087,0.172,0.264,0.279,0.455,0.279h1.896c-0.413,0.699-0.938,1.335-1.578,1.874
		c-1.488,1.255-3.376,1.855-5.316,1.69c-1.887-0.161-3.612-1.032-4.86-2.455c-0.434-0.495-1.189-0.544-1.684-0.109
		c-0.496,0.435-0.545,1.188-0.11,1.685c1.657,1.888,3.948,3.045,6.452,3.258c0.28,0.024,0.559,0.036,0.837,0.036
		c2.277,0,4.459-0.794,6.221-2.278c1.205-1.017,2.123-2.283,2.707-3.7h2.276c0.192,0,0.368-0.107,0.456-0.279
		C31.769,16.697,31.752,16.491,31.639,16.335z"/>
	<path d="M12.626,15.27l3.42-4.708c0.112-0.156,0.129-0.362,0.042-0.533c-0.087-0.172-0.263-0.28-0.456-0.28H13.72
		c1.388-2.37,4.035-3.806,6.903-3.563c1.903,0.162,3.638,1.045,4.888,2.486c0.432,0.498,1.187,0.551,1.684,0.12
		c0.498-0.432,0.552-1.186,0.12-1.684c-1.66-1.913-3.965-3.086-6.489-3.302c-4.274-0.365-8.184,2.083-9.767,5.943H8.792
		c-0.192,0-0.369,0.108-0.456,0.28c-0.087,0.17-0.071,0.377,0.042,0.533l3.42,4.708c0.097,0.133,0.25,0.211,0.414,0.211
		C12.376,15.481,12.53,15.403,12.626,15.27z"/>
</g>
</svg>
