<?xml version="1.0" encoding="utf-8"?>
<!-- Generator: Adobe Illustrator 16.0.4, SVG Export Plug-In . SVG Version: 6.00 Build 0)  -->
<!DOCTYPE svg PUBLIC "-//W3C//DTD SVG 1.1//EN" "http://www.w3.org/Graphics/SVG/1.1/DTD/svg11.dtd">
<svg version="1.1" id="Layer_1" xmlns="http://www.w3.org/2000/svg" xmlns:xlink="http://www.w3.org/1999/xlink" x="0px" y="0px"
	 width="60px" height="38px" viewBox="0 0 60 38" enable-background="new 0 0 60 38" xml:space="preserve">
<path fill="#FFFFFF" d="M49.414,13.466c-0.324-0.063-0.656-0.105-0.99-0.143c-0.063-0.007-0.126-0.02-0.188-0.026
	c-0.411-0.041-0.827-0.062-1.248-0.062c-0.006,0-0.016,0.001-0.025,0.001c-0.02,0-0.037-0.003-0.056-0.003
	c-0.432,0-0.86,0.023-1.282,0.062c-1.506-4.651-6.079-7.958-11.387-7.958c-0.579,0-1.373,0.043-2.106,0.125
	C29.522,2.152,25.366,0,20.667,0C12.771,0,6.366,6.056,6.366,13.524c0,0.299,0.028,0.594,0.048,0.888
	C2.572,16.658,0,20.666,0,25.255c0,7.029,6.019,12.73,13.45,12.744V38h32.466l-0.004-0.047C46.242,37.976,46.571,38,46.906,38
	C54.139,38,60,32.455,60,25.616C60,19.588,55.444,14.572,49.414,13.466z"/>
<path fill="#231F20" d="M37.865,28.594l-3.27,3.271C34.507,31.955,34.39,32,34.27,32c-0.115,0-0.234-0.045-0.324-0.135l-4.482-4.483
	l-4.434,4.434c-0.178,0.181-0.468,0.181-0.647,0l-3.223-3.222c-0.179-0.181-0.179-0.47,0-0.65l4.434-4.434l-4.457-4.462
	c-0.18-0.178-0.18-0.47,0-0.647l3.27-3.273c0.174-0.169,0.477-0.169,0.651,0l4.456,4.462l4.458-4.462
	c0.174-0.169,0.479-0.169,0.648,0l3.223,3.224c0.085,0.086,0.134,0.204,0.134,0.324c0,0.122-0.049,0.24-0.134,0.326l-4.458,4.457
	l4.481,4.485C37.952,28.029,38,28.147,38,28.268C38,28.39,37.952,28.506,37.865,28.594z"/>
</svg>
