<?xml version="1.0" encoding="utf-8"?>
<!-- Generator: Adobe Illustrator 16.0.4, SVG Export Plug-In . SVG Version: 6.00 Build 0)  -->
<!DOCTYPE svg PUBLIC "-//W3C//DTD SVG 1.1//EN" "http://www.w3.org/Graphics/SVG/1.1/DTD/svg11.dtd">
<svg version="1.1" id="Layer_1" xmlns="http://www.w3.org/2000/svg" xmlns:xlink="http://www.w3.org/1999/xlink" x="0px" y="0px"
	 width="60px" height="38px" viewBox="0 0 60 38" enable-background="new 0 0 60 38" xml:space="preserve">
<path fill="#FFFFFF" d="M49.414,13.466c-0.324-0.063-0.656-0.105-0.99-0.143c-0.063-0.007-0.126-0.02-0.188-0.026
	c-0.411-0.041-0.827-0.062-1.248-0.062c-0.006,0-0.016,0.001-0.025,0.001c-0.02,0-0.037-0.003-0.056-0.003
	c-0.432,0-0.86,0.023-1.282,0.062c-1.506-4.651-6.079-7.958-11.387-7.958c-0.579,0-1.373,0.043-2.106,0.125
	C29.522,2.152,25.366,0,20.667,0C12.771,0,6.366,6.056,6.366,13.524c0,0.299,0.028,0.594,0.048,0.888
	C2.572,16.658,0,20.666,0,25.255c0,7.029,6.019,12.73,13.45,12.744V38h32.466l-0.004-0.047C46.242,37.976,46.571,38,46.906,38
	C54.139,38,60,32.455,60,25.616C60,19.588,55.444,14.572,49.414,13.466z"/>
<path fill="#231F20" d="M35.827,22.503c-0.004-0.001-0.009,0-0.014,0h-3.829v8.124c0,0.519-0.444,0.94-0.991,0.94h-3.637
	c-0.55,0-0.992-0.422-0.992-0.94v-8.124h-3.831c-0.373,0-0.714-0.198-0.887-0.512c-0.169-0.316-0.136-0.693,0.081-0.979l6.643-8.647
	c0.188-0.243,0.486-0.388,0.804-0.388c0.317,0,0.616,0.146,0.802,0.388l6.56,8.542c0.177,0.168,0.284,0.4,0.284,0.657
	C36.821,22.082,36.376,22.503,35.827,22.503z"/>
</svg>
