<?xml version="1.0" encoding="utf-8"?>
<!-- Generator: Adobe Illustrator 16.0.3, SVG Export Plug-In . SVG Version: 6.00 Build 0)  -->
<!DOCTYPE svg PUBLIC "-//W3C//DTD SVG 1.1//EN" "http://www.w3.org/Graphics/SVG/1.1/DTD/svg11.dtd">
<svg version="1.1" id="Layer_1" xmlns="http://www.w3.org/2000/svg" xmlns:xlink="http://www.w3.org/1999/xlink" x="0px" y="0px"
	 width="30px" height="30px" viewBox="0 0 30 30" enable-background="new 0 0 30 30" xml:space="preserve">
<g>
	<path fill="#DEECEC" d="M16.506,29.496c-0.051,0-0.116-0.014-0.191-0.04c-0.129-0.056-0.188-0.093-0.23-0.136L0.745,14.085
		c-0.116-0.116-0.184-0.277-0.185-0.44L0.5,1.187c0-0.165,0.065-0.326,0.18-0.442c0.042-0.043,0.099-0.08,0.182-0.119l0.125-0.054
		c0.021-0.004,0.078-0.012,0.136-0.013L13.539,0.5c0.168,0,0.321,0.064,0.438,0.18l15.339,15.235
		c0.244,0.242,0.244,0.64,0.002,0.887L16.959,29.315c-0.043,0.044-0.101,0.081-0.186,0.121l-0.129,0.055
		c-0.006,0-0.035,0.004-0.07,0.007L16.506,29.496z M6.603,9.889L6.674,9.88c0.2-0.006,0.429-0.039,0.659-0.096
		c0.072-0.018,0.141-0.04,0.209-0.063c0.192-0.063,0.363-0.134,0.526-0.22C8.16,9.454,8.214,9.426,8.268,9.394
		C8.52,9.235,8.723,9.077,8.895,8.905c1.29-1.303,1.279-3.415-0.021-4.708C8.699,4.021,8.493,3.865,8.226,3.706
		c-0.051-0.031-0.107-0.06-0.165-0.088c-0.221-0.11-0.402-0.182-0.59-0.237C7.375,3.35,7.322,3.334,7.268,3.321
		C7.003,3.261,6.76,3.232,6.521,3.232L6.396,3.242C6.198,3.248,5.969,3.28,5.737,3.338c-0.078,0.019-0.155,0.044-0.233,0.07
		c-0.17,0.056-0.336,0.127-0.5,0.21c-0.114,0.06-0.163,0.085-0.211,0.116c-0.25,0.156-0.448,0.31-0.62,0.484
		C2.885,5.523,2.896,7.635,4.196,8.926c0.181,0.177,0.385,0.333,0.645,0.489C4.899,9.45,4.958,9.479,5.018,9.51
		c0.208,0.104,0.389,0.176,0.576,0.231l0.204,0.06c0.273,0.06,0.513,0.088,0.744,0.088h0H6.603z"/>
	<path d="M13.544,0v1c0.029,0,0.06,0.013,0.081,0.034l15.34,15.235c0.049,0.049,0.047,0.13-0.002,0.18L16.611,28.957
		c0,0-0.009,0.007-0.033,0.019l-0.017,0.005l-0.042,0.018h-0.01l-0.051-0.023l-0.024-0.011L1.099,13.732
		c-0.025-0.024-0.039-0.058-0.039-0.091L1,1.186c0-0.034,0.013-0.067,0.026-0.082C1.041,1.093,1.058,1.085,1.09,1.071l0.032-0.013
		l11.604-0.055L13.543,1L13.544,0 M6.356,2.743C6.115,2.754,5.867,2.791,5.621,2.852C5.528,2.874,5.437,2.903,5.35,2.932
		C5.16,2.995,4.972,3.073,4.777,3.173L4.726,3.2L4.712,3.207C4.649,3.24,4.587,3.273,4.532,3.308
		C4.245,3.486,4.018,3.664,3.817,3.867c-1.48,1.5-1.469,3.929,0.029,5.417c0.205,0.202,0.446,0.386,0.737,0.561
		c0.071,0.043,0.141,0.078,0.241,0.127c0.2,0.102,0.411,0.186,0.627,0.25l0.051,0.016l0.004,0.001
		c0.058,0.018,0.115,0.035,0.193,0.054c0.298,0.065,0.574,0.098,0.841,0.098h0.025c0.047,0,0.095-0.003,0.145-0.009
		c0.243-0.012,0.492-0.049,0.743-0.111c0.083-0.021,0.165-0.047,0.259-0.078c0.201-0.065,0.398-0.148,0.616-0.263
		c0.066-0.033,0.131-0.067,0.21-0.115C8.818,9.64,9.049,9.458,9.252,9.255c1.481-1.497,1.471-3.925-0.023-5.411
		C9.022,3.638,8.785,3.458,8.491,3.282C8.423,3.24,8.354,3.205,8.243,3.149C8.041,3.048,7.829,2.965,7.579,2.89
		C7.514,2.87,7.449,2.85,7.375,2.833C7.079,2.766,6.8,2.732,6.488,2.732c-0.001,0-0.003,0-0.004,0
		C6.443,2.733,6.4,2.737,6.356,2.743 M13.544,0c-0.003,0-0.005,0-0.007,0l-0.814,0.003L1.115,0.058
		C1.014,0.06,0.914,0.074,0.818,0.101C0.787,0.109,0.761,0.126,0.732,0.138S0.674,0.16,0.648,0.173
		c-0.119,0.056-0.23,0.124-0.324,0.22C0.116,0.603-0.001,0.89,0,1.189L0.06,13.646c0.001,0.297,0.121,0.582,0.332,0.793
		L15.73,29.674c0.098,0.098,0.213,0.167,0.332,0.219c0.029,0.015,0.059,0.026,0.088,0.036c0.115,0.04,0.234,0.066,0.355,0.067
		c0.008,0,0.014,0.004,0.021,0.004c0.098-0.001,0.199-0.015,0.293-0.041c0.027-0.008,0.055-0.025,0.08-0.036
		c0.029-0.009,0.057-0.021,0.084-0.033c0.119-0.056,0.232-0.124,0.33-0.223l12.36-12.515c0.437-0.443,0.434-1.155-0.006-1.592
		L14.33,0.325C14.121,0.118,13.838,0,13.544,0L13.544,0z M6.542,9.389c-0.21,0-0.42-0.029-0.626-0.074
		C5.855,9.3,5.797,9.279,5.736,9.262c-0.158-0.047-0.312-0.107-0.46-0.183c-0.061-0.03-0.119-0.058-0.178-0.093
		C4.905,8.87,4.717,8.738,4.548,8.571c-1.107-1.1-1.115-2.892-0.02-4.002C4.691,4.405,4.873,4.273,5.06,4.157
		c0.056-0.035,0.114-0.062,0.172-0.093c0.14-0.071,0.282-0.133,0.43-0.181c0.064-0.021,0.129-0.043,0.195-0.059
		C6.046,3.776,6.24,3.747,6.435,3.74c0.023-0.001,0.048-0.007,0.07-0.008c0.005,0,0.011,0,0.016,0c0.213,0,0.425,0.028,0.632,0.076
		C7.214,3.822,7.272,3.843,7.331,3.86C7.49,3.907,7.644,3.968,7.795,4.043C7.854,4.073,7.913,4.1,7.969,4.135
		c0.194,0.116,0.384,0.248,0.552,0.416c1.106,1.1,1.118,2.892,0.02,4.001C8.377,8.715,8.197,8.848,8.01,8.965
		C7.953,9,7.894,9.027,7.833,9.059c-0.137,0.072-0.28,0.133-0.426,0.18C7.343,9.26,7.279,9.282,7.212,9.299
		C7.023,9.346,6.829,9.375,6.634,9.382C6.611,9.383,6.589,9.389,6.567,9.389c-0.002,0-0.003,0-0.005,0
		C6.555,9.389,6.548,9.389,6.542,9.389L6.542,9.389z"/>
</g>
</svg>
