<?xml version="1.0" encoding="utf-8"?>
<!-- Generator: Adobe Illustrator 16.0.4, SVG Export Plug-In . SVG Version: 6.00 Build 0)  -->
<!DOCTYPE svg PUBLIC "-//W3C//DTD SVG 1.1//EN" "http://www.w3.org/Graphics/SVG/1.1/DTD/svg11.dtd">
<svg version="1.1" id="Layer_1" xmlns="http://www.w3.org/2000/svg" xmlns:xlink="http://www.w3.org/1999/xlink" x="0px" y="0px"
	 width="20px" height="14px" viewBox="0 0 20 14" enable-background="new 0 0 20 14" xml:space="preserve">
<g>
	<path fill="#231F20" d="M15.909,4.118c-0.156,0-0.311,0.007-0.466,0.024c-0.515-1.694-2.083-2.899-3.902-2.899
		c-0.212,0-0.506,0.018-0.77,0.051C9.734,0.412,8.643,0,7.364,0C4.636,0,2.419,1.97,1.969,4.733C0.778,5.475,0,6.727,0,7.949
		c0,2.113,1.748,3.833,3.896,3.833H7.64V10.4H3.896c-1.558,0-2.521-1.271-2.521-2.451c0-0.81,0.635-1.704,1.543-2.17l0.331-0.17
		l0.039-0.372C3.521,3.002,5.237,1.38,7.364,1.38c1.031,0,1.873,0.356,2.729,1.155l0.27,0.251l0.356-0.085
		c0.184-0.045,0.585-0.077,0.822-0.077c1.37,0,2.525,1.029,2.688,2.395l0.094,0.789l0.764-0.202C15.354,5.533,15.63,5.5,15.909,5.5
		c1.447,0,2.716,1.144,2.716,2.449c0,1.307-1.269,2.451-2.716,2.451H12.08v1.382h3.829c2.218,0,4.091-1.756,4.091-3.833
		C20,5.873,18.127,4.118,15.909,4.118z"/>
	<path fill="#231F20" d="M12.594,8.853c0.121,0,0.22-0.1,0.22-0.221c0-0.069-0.032-0.13-0.08-0.17L10.007,4.69
		c-0.082-0.114-0.272-0.114-0.354,0L6.896,8.502C6.849,8.569,6.841,8.657,6.878,8.731C6.916,8.805,6.99,8.853,7.073,8.853H8.95
		v4.929C8.95,13.902,9.048,14,9.169,14h1.321c0.121,0,0.219-0.098,0.219-0.219V8.853h1.877C12.589,8.853,12.592,8.853,12.594,8.853z
		"/>
</g>
</svg>
