<?xml version="1.0" encoding="utf-8"?>
<!-- Generator: Adobe Illustrator 16.0.4, SVG Export Plug-In . SVG Version: 6.00 Build 0)  -->
<!DOCTYPE svg PUBLIC "-//W3C//DTD SVG 1.1//EN" "http://www.w3.org/Graphics/SVG/1.1/DTD/svg11.dtd">
<svg version="1.1" id="Layer_1" xmlns="http://www.w3.org/2000/svg" xmlns:xlink="http://www.w3.org/1999/xlink" x="0px" y="0px"
	 width="15px" height="15px" viewBox="0 0 15 15" enable-background="new 0 0 15 15" xml:space="preserve">
<g>
	<path fill="#1A57C0" d="M5.839,12.822l-0.597,1.924C5.242,14.887,5.374,15,5.537,15h3.926c0.163,0,0.295-0.113,0.295-0.254
		L9.16,12.822H5.839z"/>
	<path fill="#1A57C0" d="M13.929,0H1.071C0.479,0,0,0.507,0,1.131v9.778c0,0.624,0.479,1.132,1.071,1.132h12.857
		c0.592,0,1.071-0.508,1.071-1.132V1.131C15,0.507,14.521,0,13.929,0z M13.708,10.588H1.239V1.097h12.469V10.588z"/>
</g>
</svg>
