<?xml version="1.0" encoding="utf-8"?>
<!-- Generator: Adobe Illustrator 16.0.4, SVG Export Plug-In . SVG Version: 6.00 Build 0)  -->
<!DOCTYPE svg PUBLIC "-//W3C//DTD SVG 1.1//EN" "http://www.w3.org/Graphics/SVG/1.1/DTD/svg11.dtd">
<svg version="1.1" id="Layer_1" xmlns="http://www.w3.org/2000/svg" xmlns:xlink="http://www.w3.org/1999/xlink" x="0px" y="0px"
	 width="16px" height="16px" viewBox="0 0 16 16" enable-background="new 0 0 16 16" xml:space="preserve">
<g>
	<path fill="#9F9F9F" d="M5.105,10.981c0.221,0.145,0.666,0.313,1.193,0.313c1.178,0,1.716-0.747,1.716-1.442
		c0-0.48-0.258-0.889-0.672-1.107c0.328-0.233,0.51-0.57,0.51-0.967c0-0.589-0.428-1.184-1.386-1.184
		c-0.525,0-0.981,0.192-1.211,0.357C5.187,7,5.159,7.088,5.188,7.167L5.344,7.58c0.021,0.053,0.065,0.095,0.119,0.112
		c0.055,0.017,0.115,0.007,0.163-0.027c0.156-0.111,0.441-0.243,0.73-0.243c0.355,0,0.551,0.159,0.551,0.446
		c0,0.385-0.449,0.524-0.751,0.524H5.84c-0.103,0-0.185,0.083-0.185,0.186v0.424c0,0.104,0.083,0.187,0.185,0.187h0.316
		c0.149,0,0.893,0.03,0.899,0.655c0.003,0.159-0.056,0.312-0.162,0.42c-0.133,0.136-0.335,0.204-0.602,0.204
		c-0.354,0-0.69-0.146-0.834-0.232C5.411,10.207,5.352,10.202,5.3,10.22c-0.053,0.019-0.094,0.061-0.113,0.112l-0.155,0.433
		C5.003,10.844,5.034,10.935,5.105,10.981z"/>
	<path fill="#9F9F9F" d="M8.688,7.818c0.014,0.055,0.053,0.101,0.106,0.124c0.052,0.023,0.111,0.021,0.162-0.007l0.469-0.252v3.357
		c0,0.101,0.083,0.185,0.186,0.185h0.549c0.103,0,0.186-0.084,0.186-0.185V6.85c0-0.102-0.083-0.185-0.186-0.185H9.675
		c-0.03,0-0.061,0.007-0.088,0.021l-0.916,0.49C8.595,7.217,8.557,7.303,8.579,7.386L8.688,7.818z"/>
	<path fill="#9F9F9F" d="M12.359,2.5H3.64C3.012,2.5,2.5,3.01,2.5,3.638v8.723c0,0.628,0.512,1.139,1.14,1.139h8.719
		c0.629,0,1.141-0.511,1.141-1.139V3.638C13.5,3.01,12.988,2.5,12.359,2.5z M10.385,3.322c0.243,0,0.441,0.197,0.441,0.441
		s-0.198,0.441-0.441,0.441c-0.245,0-0.442-0.197-0.442-0.441S10.14,3.322,10.385,3.322z M5.64,3.318
		c0.244,0,0.441,0.197,0.441,0.44C6.081,4.003,5.883,4.2,5.64,4.2c-0.244,0-0.442-0.197-0.442-0.441
		C5.197,3.516,5.396,3.318,5.64,3.318z M12.758,12.361c0,0.22-0.179,0.396-0.398,0.396H3.64c-0.219,0-0.398-0.177-0.398-0.396V4.873
		h9.516V12.361z"/>
</g>
</svg>
