<?xml version="1.0" encoding="utf-8"?>
<!-- Generator: Adobe Illustrator 16.0.4, SVG Export Plug-In . SVG Version: 6.00 Build 0)  -->
<!DOCTYPE svg PUBLIC "-//W3C//DTD SVG 1.1//EN" "http://www.w3.org/Graphics/SVG/1.1/DTD/svg11.dtd">
<svg version="1.1" id="Layer_1" xmlns="http://www.w3.org/2000/svg" xmlns:xlink="http://www.w3.org/1999/xlink" x="0px" y="0px"
	 width="23px" height="23px" viewBox="0 0 23 23" enable-background="new 0 0 23 23" xml:space="preserve">
<g>
	<path fill="#FFFFFF" d="M11.5,22.5c-6.065,0-11-4.935-11-11s4.935-11,11-11s11,4.935,11,11S17.565,22.5,11.5,22.5z"/>
	<path fill="#848484" d="M11.5,1C17.29,1,22,5.71,22,11.5C22,17.29,17.29,22,11.5,22C5.71,22,1,17.29,1,11.5C1,5.71,5.71,1,11.5,1
		 M11.5,0C5.149,0,0,5.149,0,11.5C0,17.852,5.149,23,11.5,23C17.852,23,23,17.852,23,11.5C23,5.149,17.852,0,11.5,0L11.5,0z"/>
</g>
<g>
	<path fill="#1D1D1B" d="M15.164,13.969c-0.201,0-0.371,0.172-0.377,0.371c-0.039,0.252-1.188,0.824-3.288,0.824
		s-3.248-0.572-3.287-0.824c-0.006-0.199-0.175-0.371-0.376-0.371c-0.202,0-0.367,0.158-0.374,0.359v1.877
		c0,0.045,0.008,0.088,0.023,0.129c0.229,0.955,2.188,1.393,4.014,1.393s3.786-0.438,4.014-1.393
		c0.016-0.041,0.023-0.084,0.023-0.129l-0.002-1.871C15.529,14.135,15.365,13.969,15.164,13.969z"/>
	<path fill="#1D1D1B" d="M15.164,10.256c-0.201,0-0.371,0.173-0.377,0.374c-0.039,0.249-1.188,0.823-3.288,0.823
		s-3.248-0.574-3.287-0.823c-0.006-0.201-0.175-0.374-0.376-0.374c-0.202,0-0.367,0.159-0.374,0.359v1.879
		c0,0.045,0.008,0.088,0.023,0.127c0.229,0.955,2.188,1.395,4.014,1.395s3.786-0.439,4.014-1.395
		c0.016-0.039,0.023-0.082,0.023-0.127l-0.002-1.872C15.529,10.422,15.365,10.256,15.164,10.256z"/>
	<path fill="#1D1D1B" d="M15.537,6.856c0-1.088-2.092-1.583-4.038-1.583c-1.945,0-4.037,0.496-4.037,1.583
		c0,0.002,0.001,0.004,0.001,0.006c0,0.003-0.001,0.004-0.001,0.007v1.865c0,0.045,0.008,0.088,0.023,0.127
		c0.229,0.957,2.188,1.395,4.014,1.395s3.786-0.438,4.014-1.395c0.016-0.039,0.023-0.082,0.023-0.127V6.87
		c0-0.002-0.002-0.004-0.002-0.007C15.535,6.86,15.537,6.859,15.537,6.856z M14.787,6.87C14.748,7.12,13.6,7.692,11.5,7.692
		S8.251,7.12,8.212,6.87c0-0.004-0.002-0.009-0.002-0.013c0-0.243,1.152-0.836,3.29-0.836c2.139,0,3.29,0.593,3.29,0.836
		C14.789,6.86,14.787,6.866,14.787,6.87z"/>
</g>
</svg>
