<?xml version="1.0" encoding="utf-8"?>
<!-- Generator: Adobe Illustrator 16.0.4, SVG Export Plug-In . SVG Version: 6.00 Build 0)  -->
<!DOCTYPE svg PUBLIC "-//W3C//DTD SVG 1.1//EN" "http://www.w3.org/Graphics/SVG/1.1/DTD/svg11.dtd">
<svg version="1.1" id="Layer_1" xmlns="http://www.w3.org/2000/svg" xmlns:xlink="http://www.w3.org/1999/xlink" x="0px" y="0px"
	 width="16px" height="16px" viewBox="0 0 16 16" enable-background="new 0 0 16 16" xml:space="preserve">
<g>
	<path fill="#231F20" d="M4.007,9.709H1.78l-0.453,1.328H0.366l2.09-5.688h0.898l2.066,5.688H4.456L4.007,9.709z M2.054,8.916h1.684
		l-0.824-2.43H2.89L2.054,8.916z"/>
	<path fill="#231F20" d="M6.081,11.037V5.35h1.891c0.629,0,1.122,0.129,1.477,0.389C9.805,5.999,9.979,6.385,9.979,6.9
		c0,0.258-0.074,0.488-0.223,0.691C9.607,7.794,9.402,7.946,9.141,8.045c0.338,0.076,0.598,0.238,0.78,0.488
		s0.272,0.541,0.272,0.871c0,0.533-0.174,0.938-0.522,1.217c-0.348,0.277-0.831,0.416-1.445,0.416H6.081z M7.03,7.744h1.047
		c0.294,0,0.526-0.07,0.696-0.209c0.17-0.139,0.256-0.336,0.256-0.592c0-0.281-0.09-0.49-0.27-0.627
		C8.58,6.179,8.318,6.111,7.972,6.111H7.03V7.744z M7.03,8.451v1.824h1.195c0.328,0,0.582-0.074,0.757-0.226
		C9.16,9.902,9.249,9.686,9.249,9.402c0-0.303-0.074-0.535-0.224-0.702C8.877,8.533,8.646,8.45,8.331,8.45L7.03,8.451L7.03,8.451z"
		/>
	<path fill="#231F20" d="M15.354,9.15l0.008,0.022c0.012,0.576-0.176,1.043-0.561,1.404c-0.384,0.36-0.904,0.541-1.561,0.541
		c-0.664,0-1.204-0.224-1.619-0.67c-0.415-0.447-0.623-1.019-0.623-1.714V7.654c0-0.693,0.205-1.264,0.615-1.713
		c0.41-0.449,0.943-0.674,1.6-0.674c0.672,0,1.201,0.176,1.588,0.529s0.575,0.828,0.564,1.424l-0.008,0.023h-0.918
		c0-0.383-0.104-0.681-0.311-0.895c-0.207-0.214-0.513-0.32-0.916-0.32c-0.388,0-0.695,0.153-0.924,0.46
		c-0.229,0.307-0.342,0.692-0.342,1.155v1.089c0,0.468,0.115,0.855,0.35,1.162c0.232,0.309,0.549,0.461,0.943,0.461
		c0.394,0,0.691-0.104,0.895-0.314c0.204-0.21,0.305-0.506,0.305-0.891H15.354z"/>
</g>
</svg>
