<?xml version="1.0" encoding="utf-8"?>
<!-- Generator: Adobe Illustrator 16.0.4, SVG Export Plug-In . SVG Version: 6.00 Build 0)  -->
<!DOCTYPE svg PUBLIC "-//W3C//DTD SVG 1.1//EN" "http://www.w3.org/Graphics/SVG/1.1/DTD/svg11.dtd">
<svg version="1.1" id="Layer_1" xmlns="http://www.w3.org/2000/svg" xmlns:xlink="http://www.w3.org/1999/xlink" x="0px" y="0px"
	 width="16px" height="16px" viewBox="0 0 16 16" enable-background="new 0 0 16 16" xml:space="preserve">
<g>
	<path fill="#231F20" d="M4.109,11.037H3.16V6.252H2.004V5.553L4.109,5.35V11.037z"/>
	<path fill="#231F20" d="M9.41,11.037H5.633v-0.656l1.852-2.016c0.302-0.331,0.51-0.602,0.625-0.814
		c0.115-0.212,0.172-0.42,0.172-0.623c0-0.255-0.074-0.469-0.223-0.641s-0.35-0.258-0.602-0.258c-0.333,0-0.581,0.094-0.742,0.281
		C6.554,6.497,6.473,6.756,6.473,7.084H5.555L5.547,7.061C5.534,6.555,5.699,6.13,6.043,5.785C6.387,5.44,6.858,5.267,7.457,5.267
		c0.547,0,0.979,0.151,1.297,0.453C9.07,6.023,9.23,6.417,9.23,6.904c0,0.326-0.092,0.637-0.275,0.934S8.487,8.496,8.102,8.92
		l-1.266,1.332l0.012,0.023H9.41V11.037z"/>
	<path fill="#231F20" d="M11.646,7.764h0.66c0.307,0,0.527-0.076,0.664-0.229c0.135-0.152,0.202-0.368,0.202-0.646
		c0-0.273-0.073-0.485-0.219-0.635s-0.361-0.225-0.646-0.225c-0.258,0-0.469,0.074-0.631,0.221s-0.244,0.34-0.244,0.58H10.52
		l-0.008-0.023C10.498,6.372,10.66,6.006,11,5.711s0.771-0.443,1.299-0.443c0.555,0,0.997,0.141,1.328,0.422
		c0.33,0.281,0.496,0.681,0.496,1.199c0,0.242-0.074,0.477-0.223,0.703c-0.149,0.226-0.359,0.402-0.633,0.527
		c0.321,0.115,0.561,0.289,0.713,0.523c0.151,0.233,0.229,0.502,0.229,0.801c0,0.521-0.18,0.93-0.537,1.229
		s-0.816,0.447-1.373,0.447c-0.525,0-0.969-0.141-1.326-0.42s-0.529-0.668-0.514-1.162l0.008-0.023h0.914
		c0,0.252,0.084,0.455,0.254,0.61s0.395,0.233,0.676,0.233c0.295,0,0.525-0.08,0.695-0.238c0.169-0.158,0.254-0.383,0.254-0.674
		c0-0.32-0.078-0.557-0.232-0.709c-0.154-0.151-0.396-0.228-0.721-0.228h-0.66V7.764L11.646,7.764z"/>
</g>
</svg>
