<?xml version="1.0" encoding="utf-8"?>
<!-- Generator: Adobe Illustrator 16.0.3, SVG Export Plug-In . SVG Version: 6.00 Build 0)  -->
<!DOCTYPE svg PUBLIC "-//W3C//DTD SVG 1.1//EN" "http://www.w3.org/Graphics/SVG/1.1/DTD/svg11.dtd">
<svg version="1.1" id="Layer_1" xmlns="http://www.w3.org/2000/svg" xmlns:xlink="http://www.w3.org/1999/xlink" x="0px" y="0px"
	 width="17px" height="17px" viewBox="0 0 17 17" enable-background="new 0 0 17 17" xml:space="preserve">
<path fill="#B9B9B9" d="M15.559,17c-0.384,0-0.744-0.148-1.015-0.42l-6.051-6.047l-6.036,6.034c-0.275,0.275-0.64,0.427-1.025,0.427
	c-0.381,0-0.741-0.148-1.013-0.421c-0.56-0.562-0.559-1.476,0.004-2.037L6.46,8.498L0.422,2.462C0.149,2.19,0,1.829,0,1.445
	c0-0.384,0.151-0.745,0.423-1.018c0.274-0.274,0.635-0.424,1.018-0.424c0.382,0,0.743,0.15,1.016,0.423l6.04,6.036l6.042-6.042
	C14.812,0.15,15.173,0,15.556,0c0.385,0,0.746,0.15,1.018,0.422c0.274,0.273,0.425,0.634,0.425,1.016
	c-0.001,0.382-0.151,0.742-0.424,1.015l-6.043,6.044l6.049,6.047c0.561,0.561,0.56,1.473-0.001,2.031
	C16.306,16.85,15.944,17,15.559,17z"/>
</svg>
