<?xml version="1.0" encoding="utf-8"?>
<!-- Generator: Adobe Illustrator 16.0.4, SVG Export Plug-In . SVG Version: 6.00 Build 0)  -->
<!DOCTYPE svg PUBLIC "-//W3C//DTD SVG 1.1//EN" "http://www.w3.org/Graphics/SVG/1.1/DTD/svg11.dtd">
<svg version="1.1" id="Layer_1" xmlns="http://www.w3.org/2000/svg" xmlns:xlink="http://www.w3.org/1999/xlink" x="0px" y="0px"
	 width="11px" height="12px" viewBox="0 0 11 12" enable-background="new 0 0 11 12" xml:space="preserve">
<path fill="#969696" d="M10.636,9.681L7.538,2.193c-0.146-0.375-0.266-0.675-0.36-0.898C7.084,1.07,6.968,0.861,6.83,0.666
	C6.693,0.471,6.512,0.311,6.289,0.187C6.064,0.063,5.786,0,5.451,0c-0.329,0-0.605,0.063-0.83,0.187
	C4.398,0.311,4.218,0.473,4.081,0.674c-0.138,0.2-0.267,0.452-0.388,0.756C3.57,1.733,3.467,1.993,3.381,2.209L0.348,9.743
	c-0.124,0.301-0.213,0.536-0.267,0.705C0.027,10.617,0,10.78,0,10.939c0,0.274,0.116,0.52,0.348,0.736S0.847,12,1.148,12
	c0.356,0,0.612-0.101,0.77-0.305c0.156-0.204,0.345-0.596,0.565-1.175l0.566-1.489h4.82l0.567,1.457
	c0.074,0.18,0.164,0.386,0.27,0.621c0.106,0.234,0.204,0.409,0.296,0.522c0.091,0.113,0.205,0.203,0.341,0.27
	C9.477,11.968,9.638,12,9.827,12c0.323,0,0.599-0.112,0.828-0.336C10.884,11.439,11,11.192,11,10.924
	C11,10.665,10.878,10.251,10.636,9.681z M3.68,7.267l1.755-4.789l1.786,4.789H3.68z"/>
</svg>
