<?xml version="1.0" encoding="utf-8"?>
<!-- Generator: Adobe Illustrator 16.0.4, SVG Export Plug-In . SVG Version: 6.00 Build 0)  -->
<!DOCTYPE svg PUBLIC "-//W3C//DTD SVG 1.1//EN" "http://www.w3.org/Graphics/SVG/1.1/DTD/svg11.dtd">
<svg version="1.1" id="Layer_1" xmlns="http://www.w3.org/2000/svg" xmlns:xlink="http://www.w3.org/1999/xlink" x="0px" y="0px"
	 width="19px" height="19px" viewBox="0 0 19 19" enable-background="new 0 0 19 19" xml:space="preserve">
<g>
	<path fill="#BCBCBC" d="M16.407,8.219l-3.103-4.042C13.219,4.064,13.085,4,12.942,4H6.059C5.916,4,5.782,4.064,5.697,4.176
		L2.594,8.219C2.533,8.296,2.5,8.392,2.5,8.488v6.063C2.5,14.799,2.703,15,2.955,15h13.091c0.251,0,0.454-0.201,0.454-0.448V8.488
		C16.5,8.392,16.468,8.296,16.407,8.219z M15.591,14.103H3.408V8.64l2.875-3.745h6.432l2.875,3.745V14.103z"/>
	<path fill="#BCBCBC" d="M12.273,5.617H6.727c-0.086,0-0.167,0.041-0.219,0.108L4.291,8.671C4.229,8.753,4.219,8.862,4.266,8.952
		c0.046,0.092,0.141,0.148,0.244,0.148H7.08v1.418c0,0.149,0.123,0.269,0.273,0.269h4.294c0.15,0,0.271-0.119,0.271-0.269V9.101
		h2.572c0.103,0,0.197-0.057,0.244-0.148c0.045-0.09,0.037-0.199-0.026-0.281l-2.217-2.946C12.441,5.658,12.359,5.617,12.273,5.617z
		 M11.647,8.563c-0.15,0-0.272,0.12-0.272,0.269v1.418h-3.75V8.832c0-0.148-0.122-0.269-0.272-0.269H5.051l1.813-2.408h5.272
		l1.813,2.408H11.647z"/>
</g>
</svg>
