<?xml version="1.0" encoding="utf-8"?>
<!-- Generator: Adobe Illustrator 16.0.4, SVG Export Plug-In . SVG Version: 6.00 Build 0)  -->
<!DOCTYPE svg PUBLIC "-//W3C//DTD SVG 1.1//EN" "http://www.w3.org/Graphics/SVG/1.1/DTD/svg11.dtd">
<svg version="1.1" id="Layer_1" xmlns="http://www.w3.org/2000/svg" xmlns:xlink="http://www.w3.org/1999/xlink" x="0px" y="0px"
	 width="19px" height="19px" viewBox="0 0 19 19" enable-background="new 0 0 19 19" xml:space="preserve">
<g>
	<path fill="#BCBCBC" d="M13.141,8.914l-3.009-2.64c-0.12-0.087-0.279-0.1-0.411-0.032C9.685,6.261,9.653,6.284,9.626,6.312
		C9.624,6.312,9.622,6.313,9.621,6.314C9.6,6.335,9.583,6.358,9.567,6.383C9.562,6.389,9.56,6.396,9.557,6.402
		C9.544,6.424,9.534,6.447,9.525,6.472C9.523,6.479,9.521,6.489,9.518,6.498C9.511,6.529,9.504,6.562,9.504,6.595v0.591v0.58
		c-0.007,0-0.014-0.003-0.022-0.002c-3.56,0.359-6.144,2.12-6.144,4.188c0,1.471,1.296,2.814,3.468,3.592
		c0.025,0.01,0.051,0.014,0.077,0.014c0.089,0,0.173-0.053,0.209-0.141c0.047-0.111-0.004-0.24-0.112-0.291
		c-1.067-0.504-1.68-1.227-1.68-1.984c0-1.279,1.768-2.32,4.204-2.48v1.213c0,0.148,0.084,0.285,0.217,0.352
		c0.026,0.014,0.055,0.021,0.083,0.029c0.026,0.006,0.053,0.008,0.078,0.01h0.001c0.088,0.004,0.175-0.018,0.249-0.07l3.009-2.641
		c0.103-0.074,0.163-0.192,0.163-0.318C13.304,9.107,13.243,8.988,13.141,8.914z"/>
	<path fill="#BCBCBC" d="M12.452,11.68c-0.229,0-0.415,0.186-0.415,0.416v4.074H2.241V8.697H4.3c0.229,0,0.415-0.185,0.415-0.414
		S4.529,7.868,4.3,7.868H1.826c-0.229,0-0.415,0.186-0.415,0.415v8.301c0,0.23,0.186,0.416,0.415,0.416h10.626
		c0.229,0,0.415-0.186,0.415-0.416v-4.488C12.867,11.865,12.682,11.68,12.452,11.68z"/>
	<path fill="#BCBCBC" d="M6.548,7.319c0.229,0,0.415-0.186,0.415-0.415V2.83h9.796v7.473H14.7c-0.229,0-0.414,0.184-0.414,0.414
		c0,0.229,0.185,0.414,0.414,0.414h2.474c0.229,0,0.415-0.186,0.415-0.414V2.415C17.589,2.186,17.403,2,17.174,2H6.548
		C6.318,2,6.133,2.186,6.133,2.415v4.489C6.133,7.134,6.318,7.319,6.548,7.319z"/>
</g>
</svg>
