<?xml version="1.0" encoding="utf-8"?>
<!-- Generator: Adobe Illustrator 16.0.3, SVG Export Plug-In . SVG Version: 6.00 Build 0)  -->
<!DOCTYPE svg PUBLIC "-//W3C//DTD SVG 1.1//EN" "http://www.w3.org/Graphics/SVG/1.1/DTD/svg11.dtd">
<svg version="1.1" id="Layer_1" xmlns="http://www.w3.org/2000/svg" xmlns:xlink="http://www.w3.org/1999/xlink" x="0px" y="0px"
	 width="19px" height="19px" viewBox="0 0 19 19" enable-background="new 0 0 19 19" xml:space="preserve">
<path fill="#BCBCBC" d="M17.36,4.061l-2.421-2.42c-0.187-0.187-0.49-0.187-0.676,0l-0.338,0.338l-0.769,0.768l-0.045,0.045
	l-9.835,9.833c-0.045,0.045-0.081,0.1-0.104,0.16l-1.638,4.057c-0.073,0.18-0.031,0.383,0.105,0.518
	C1.731,17.451,1.854,17.5,1.978,17.5c0.06,0,0.121-0.012,0.179-0.035l2.579-1.041l1.48-0.596c0.059-0.025,0.113-0.061,0.158-0.107
	L17.319,4.777l0.041-0.042c0.088-0.089,0.14-0.21,0.14-0.338C17.5,4.271,17.448,4.15,17.36,4.061z M5.768,14.977l-1.585,0.641
	l-0.8-0.799l0.641-1.586L14.602,2.654l0.804,0.803L5.34,13.521c-0.093,0.094-0.093,0.244,0,0.338c0.048,0.047,0.107,0.07,0.168,0.07
	c0.062,0,0.123-0.023,0.169-0.07L15.743,3.794l0.603,0.604L5.768,14.977z"/>
</svg>
