<?xml version="1.0" encoding="utf-8"?>
<!-- Generator: Adobe Illustrator 16.0.0, SVG Export Plug-In . SVG Version: 6.00 Build 0)  -->
<!DOCTYPE svg PUBLIC "-//W3C//DTD SVG 1.1//EN" "http://www.w3.org/Graphics/SVG/1.1/DTD/svg11.dtd">
<svg version="1.1" id="Layer_1" xmlns="http://www.w3.org/2000/svg" xmlns:xlink="http://www.w3.org/1999/xlink" x="0px" y="0px"
	 width="19px" height="19px" viewBox="0 0 19 19" enable-background="new 0 0 19 19" xml:space="preserve">
<g>
	<path fill="#BCBCBC" d="M5.34,13.859c0.048,0.047,0.107,0.07,0.168,0.07c0.062,0,0.123-0.023,0.169-0.07l3.03-3.03L8.37,10.491
		l-3.03,3.03C5.247,13.615,5.247,13.766,5.34,13.859z"/>
	<path fill="#BCBCBC" d="M9.688,7.567l4.913-4.914l0.804,0.803L10.491,8.37l0.338,0.338l4.914-4.914l0.603,0.604l-4.913,4.914
		l0.676,0.676l5.211-5.21l0.041-0.042c0.088-0.089,0.14-0.21,0.14-0.338c0-0.126-0.052-0.248-0.14-0.337l-2.421-2.42
		c-0.187-0.187-0.49-0.187-0.676,0l-0.338,0.338l-0.769,0.768l-0.045,0.045l-4.101,4.1L9.688,7.567z"/>
	<path fill="#BCBCBC" d="M9.312,11.433l-3.544,3.544l-1.585,0.641l-0.8-0.799l0.641-1.586l3.544-3.544L6.891,9.012l-3.613,3.613
		c-0.045,0.045-0.081,0.1-0.104,0.16l-1.638,4.057c-0.073,0.18-0.031,0.383,0.105,0.518C1.731,17.451,1.854,17.5,1.978,17.5
		c0.06,0,0.121-0.012,0.179-0.035l2.579-1.041l1.48-0.596c0.059-0.025,0.113-0.061,0.158-0.107l3.614-3.612L9.312,11.433z"/>
</g>
<line fill="none" stroke="#BCBCBC" stroke-width="2" stroke-linecap="round" stroke-miterlimit="10" x1="2.438" y1="2.438" x2="16.562" y2="16.562"/>
</svg>
