<?xml version="1.0" encoding="utf-8"?>
<!-- Generator: Adobe Illustrator 15.1.0, SVG Export Plug-In . SVG Version: 6.00 Build 0)  -->
<!DOCTYPE svg PUBLIC "-//W3C//DTD SVG 1.1//EN" "http://www.w3.org/Graphics/SVG/1.1/DTD/svg11.dtd">
<svg version="1.1" id="Layer_1" xmlns="http://www.w3.org/2000/svg" xmlns:xlink="http://www.w3.org/1999/xlink" x="0px" y="0px"
	 width="34px" height="19px" viewBox="0 0 34 19" enable-background="new 0 0 34 19" xml:space="preserve">
<path fill="#BCBCBC" d="M24.955,2H9.043C5.162,2,2,5.19,2,9.11v0.775C2,13.808,5.162,17,9.043,17h15.912
	C28.838,17,32,13.808,32,9.886V9.11C32,5.19,28.838,2,24.955,2z M13.463,10.427H6.359c-0.511,0-0.926-0.414-0.926-0.927
	c0-0.512,0.415-0.928,0.926-0.928h7.104c0.197,0,0.379,0.063,0.529,0.168c0.239,0.168,0.396,0.445,0.396,0.76
	C14.389,10.013,13.976,10.427,13.463,10.427z M29.902,9.886c0,2.755-2.221,4.997-4.947,4.997L17,14.882V4.114h7.955
	c2.727,0,4.947,2.241,4.947,4.996V9.886z"/>
</svg>
