<?xml version="1.0" encoding="utf-8"?>
<!-- Generator: Adobe Illustrator 15.1.0, SVG Export Plug-In . SVG Version: 6.00 Build 0)  -->
<!DOCTYPE svg PUBLIC "-//W3C//DTD SVG 1.1//EN" "http://www.w3.org/Graphics/SVG/1.1/DTD/svg11.dtd">
<svg version="1.1" id="Layer_1" xmlns="http://www.w3.org/2000/svg" xmlns:xlink="http://www.w3.org/1999/xlink" x="0px" y="0px"
	 width="19px" height="19px" viewBox="0 0 19 19" enable-background="new 0 0 19 19" xml:space="preserve">
<g>
	<path fill="#BCBCBC" d="M4.592,14.701c0.015,0,0.03-0.001,0.046-0.003l2.764-0.438c0.107-0.017,0.197-0.093,0.231-0.198
		c0.034-0.104,0.006-0.218-0.072-0.296l-0.682-0.681l6.166-6.167L13.728,7.6c0.055,0.056,0.13,0.086,0.206,0.086
		c0.03,0,0.061-0.004,0.09-0.015c0.104-0.033,0.181-0.122,0.197-0.231l0.439-2.764c0.013-0.093-0.017-0.186-0.082-0.252
		c-0.066-0.065-0.159-0.096-0.253-0.081L11.563,4.78c-0.109,0.017-0.198,0.094-0.231,0.197c-0.034,0.106-0.006,0.22,0.071,0.296
		l0.681,0.683l-6.166,6.166l-0.682-0.681c-0.077-0.079-0.191-0.106-0.295-0.072c-0.104,0.033-0.182,0.123-0.198,0.23l-0.439,2.766
		c-0.015,0.091,0.017,0.186,0.083,0.251C4.441,14.671,4.516,14.701,4.592,14.701z"/>
	<path fill="#BCBCBC" d="M16.514,2H2.486C2.218,2,2,2.218,2,2.486v14.027C2,16.782,2.218,17,2.486,17h14.027
		C16.782,17,17,16.782,17,16.514V2.486C17,2.218,16.782,2,16.514,2z M16.029,16.029H2.971V2.971h13.059V16.029z"/>
</g>
</svg>
