<?xml version="1.0" encoding="utf-8"?>
<!-- Generator: Adobe Illustrator 15.1.0, SVG Export Plug-In . SVG Version: 6.00 Build 0)  -->
<!DOCTYPE svg PUBLIC "-//W3C//DTD SVG 1.1//EN" "http://www.w3.org/Graphics/SVG/1.1/DTD/svg11.dtd">
<svg version="1.1" id="Layer_1" xmlns="http://www.w3.org/2000/svg" xmlns:xlink="http://www.w3.org/1999/xlink" x="0px" y="0px"
	 width="19px" height="19px" viewBox="0 0 19 19" enable-background="new 0 0 19 19" xml:space="preserve">
<g>
	<path fill="#BCBCBC" d="M17.367,9.24l-2.973-2.148c-0.099-0.07-0.229-0.081-0.337-0.026c-0.108,0.056-0.176,0.165-0.176,0.286V8.75
		H11.33V4.035c0-0.295-0.24-0.535-0.537-0.535c-0.298,0-0.539,0.24-0.539,0.535v10.929c0,0.295,0.241,0.536,0.539,0.536
		c0.297,0,0.537-0.241,0.537-0.536v-4.713h2.552v1.397c0,0.121,0.067,0.232,0.176,0.286c0.047,0.024,0.098,0.035,0.147,0.035
		c0.067,0,0.133-0.021,0.189-0.061l2.973-2.149C17.45,9.699,17.5,9.604,17.5,9.5S17.45,9.301,17.367,9.24z"/>
	<path fill="#BCBCBC" d="M8.423,3.5c-0.297,0-0.538,0.24-0.538,0.535V8.75H5.119V7.352c0-0.121-0.068-0.23-0.176-0.286
		C4.835,7.011,4.705,7.021,4.606,7.092L1.634,9.24C1.55,9.301,1.5,9.396,1.5,9.5s0.05,0.199,0.134,0.26l2.972,2.149
		c0.057,0.04,0.123,0.061,0.19,0.061c0.05,0,0.1-0.011,0.146-0.035c0.108-0.054,0.176-0.165,0.176-0.285v-1.398h2.767v4.713
		c0,0.295,0.241,0.536,0.538,0.536c0.298,0,0.539-0.241,0.539-0.536V4.035C8.962,3.74,8.722,3.5,8.423,3.5z"/>
</g>
</svg>
