<?xml version="1.0" encoding="utf-8"?>
<!-- Generator: Adobe Illustrator 16.0.4, SVG Export Plug-In . SVG Version: 6.00 Build 0)  -->
<!DOCTYPE svg PUBLIC "-//W3C//DTD SVG 1.1//EN" "http://www.w3.org/Graphics/SVG/1.1/DTD/svg11.dtd">
<svg version="1.1" id="Layer_1" xmlns="http://www.w3.org/2000/svg" xmlns:xlink="http://www.w3.org/1999/xlink" x="0px" y="0px"
	 width="19px" height="19px" viewBox="0 0 19 19" enable-background="new 0 0 19 19" xml:space="preserve">
<path fill="#4485F4" d="M13.646,13.644c-0.474,0.474-1.243,0.476-1.717,0.003l-2.431-2.432L7.071,13.64
	c-0.474,0.476-1.241,0.478-1.717,0.002C4.882,13.168,4.88,12.4,5.356,11.925l2.426-2.426L5.356,7.074
	c-0.476-0.475-0.473-1.241,0-1.715c0.475-0.475,1.241-0.476,1.715-0.001l2.428,2.426l2.429-2.428c0.475-0.475,1.242-0.473,1.715,0
	c0.476,0.476,0.475,1.24,0,1.715l-2.428,2.427l2.431,2.432C14.118,12.402,14.12,13.171,13.646,13.644"/>
<rect fill="none" width="19" height="19"/>
</svg>
