<?xml version="1.0" encoding="utf-8"?>
<!-- Generator: Adobe Illustrator 16.0.4, SVG Export Plug-In . SVG Version: 6.00 Build 0)  -->
<!DOCTYPE svg PUBLIC "-//W3C//DTD SVG 1.1//EN" "http://www.w3.org/Graphics/SVG/1.1/DTD/svg11.dtd">
<svg version="1.1" id="Layer_1" xmlns="http://www.w3.org/2000/svg" xmlns:xlink="http://www.w3.org/1999/xlink" x="0px" y="0px"
	 width="25px" height="16px" viewBox="0 0 25 16" enable-background="new 0 0 25 16" xml:space="preserve">
<g>
	<path fill="#231F20" d="M4.676,5.764C4.648,5.932,4.641,6.075,4.603,6.208c-0.654,2.308-1.304,4.615-1.977,6.916
		c-0.113,0.39-0.303,0.762-0.516,1.104c-0.107,0.172-0.346,0.26-0.628,0.457c0.22-0.902,0.087-1.237-0.414-1.322
		c-0.482-0.082-0.958,0.207-1.05,0.64c-0.095,0.442,0.206,0.86,0.746,0.946c1.266,0.201,2.36-0.182,3.079-1.234
		c0.524-0.77,0.957-1.632,1.26-2.512c0.567-1.646,1.02-3.329,1.501-5.004c0.1-0.348,0.251-0.499,0.633-0.495
		c0.688,0.009,0.77-0.116,0.743-0.917c-0.291-0.025-0.584-0.05-0.876-0.075C7.267,2.989,8.363,1.4,9.332,1.514
		C9.286,1.671,9.248,1.819,9.203,1.966C9.045,2.472,9.209,2.828,9.645,2.934c0.451,0.109,0.839-0.172,0.917-0.668
		c0.106-0.669-0.26-1.154-0.964-1.236c-1.18-0.138-2.215,0.207-3,1.091c-0.5,0.562-0.861,1.244-1.329,1.837
		C5.04,4.247,4.743,4.604,4.424,4.673c-0.617,0.132-0.665,0.48-0.632,0.988C4.093,5.696,4.371,5.728,4.676,5.764z"/>
	<path fill="#231F20" d="M17.459,6.834c-0.309-0.7-0.566-1.321-0.857-1.925c-0.069-0.146-0.262-0.357-0.371-0.343
		c-0.793,0.104-1.58,0.258-2.367,0.396c-0.012,0.057-0.021,0.114-0.033,0.171c0.798-0.146,1.078,0.36,1.275,0.932
		c0.252,0.735,0.457,1.487,0.713,2.221c0.13,0.375,0.043,0.647-0.198,0.952c-0.591,0.742-1.119,1.486-2.274,0.88
		c-0.458-0.239-0.99,0.207-1.062,0.728c-0.073,0.54,0.302,1.024,0.86,0.916c0.508-0.1,1.039-0.355,1.436-0.688
		c0.552-0.463,0.986-1.061,1.503-1.635c0.575,1.076,0.624,2.645,2.409,2.304c0.752-0.144,1.764-1.338,1.74-2.12
		c-0.219,0.258-0.369,0.423-0.504,0.597c-0.481,0.619-0.929,0.61-1.238-0.097c-0.322-0.729-0.561-1.494-0.797-2.255
		c-0.053-0.167,0.002-0.408,0.086-0.574c0.555-1.096,0.895-1.233,2.115-1.089c0.293,0.034,0.737-0.109,0.892-0.327
		c0.157-0.225,0.17-0.716,0.022-0.95c-0.146-0.229-0.607-0.441-0.863-0.379c-0.428,0.105-0.866,0.368-1.184,0.682
		C18.284,5.696,17.91,6.266,17.459,6.834z"/>
	<path fill="#231F20" d="M14.666,1.154C12.562,1.696,9.362,4.293,8.72,7.866c-0.399,2.222,0.649,5.743,2.023,6.61
		C9.481,9.312,10.861,4.934,14.666,1.154z"/>
	<path fill="#231F20" d="M22.912,1.082c1.312,5.309-0.118,9.689-3.919,13.504C24.766,12.818,27.001,5.161,22.912,1.082z"/>
	<path fill="#231F20" d="M4.676,5.764C4.371,5.728,4.093,5.696,3.792,5.661C3.759,5.153,3.807,4.805,4.424,4.673
		C4.743,4.604,5.04,4.247,5.269,3.958c0.467-0.594,0.829-1.275,1.329-1.837c0.785-0.884,1.821-1.229,3-1.091
		c0.704,0.083,1.07,0.567,0.964,1.236c-0.078,0.496-0.466,0.777-0.917,0.668c-0.436-0.106-0.6-0.462-0.441-0.968
		c0.045-0.147,0.083-0.295,0.129-0.452C8.363,1.4,7.267,2.989,7.103,4.712c0.292,0.025,0.585,0.05,0.876,0.075
		c0.027,0.801-0.055,0.926-0.743,0.917C6.855,5.7,6.704,5.851,6.603,6.198c-0.481,1.675-0.934,3.358-1.501,5.004
		c-0.303,0.88-0.735,1.743-1.26,2.512c-0.719,1.054-1.813,1.437-3.079,1.234c-0.541-0.087-0.841-0.505-0.746-0.946
		c0.092-0.434,0.568-0.722,1.05-0.641c0.501,0.086,0.634,0.421,0.414,1.324c0.282-0.199,0.521-0.287,0.628-0.459
		c0.213-0.343,0.403-0.716,0.516-1.104c0.673-2.301,1.322-4.607,1.977-6.916C4.641,6.075,4.648,5.932,4.676,5.764z"/>
	<path fill="#231F20" d="M17.459,6.834c0.451-0.568,0.825-1.138,1.303-1.604c0.316-0.313,0.756-0.577,1.184-0.682
		c0.256-0.062,0.719,0.149,0.863,0.379c0.146,0.234,0.135,0.725-0.022,0.95c-0.153,0.218-0.599,0.361-0.892,0.327
		c-1.222-0.144-1.562-0.007-2.115,1.089c-0.084,0.166-0.139,0.407-0.086,0.574c0.236,0.761,0.475,1.527,0.797,2.255
		c0.311,0.707,0.757,0.716,1.238,0.097c0.135-0.174,0.285-0.339,0.504-0.597c0.022,0.782-0.988,1.978-1.74,2.12
		c-1.785,0.341-1.834-1.227-2.409-2.303c-0.517,0.574-0.951,1.17-1.503,1.634c-0.396,0.332-0.928,0.589-1.436,0.688
		c-0.56,0.108-0.935-0.376-0.86-0.916c0.071-0.521,0.604-0.967,1.062-0.728c1.155,0.605,1.684-0.139,2.274-0.881
		c0.241-0.303,0.328-0.576,0.198-0.951c-0.256-0.734-0.461-1.486-0.713-2.221c-0.197-0.572-0.479-1.078-1.275-0.932
		c0.012-0.057,0.021-0.114,0.033-0.171c0.787-0.138,1.574-0.293,2.367-0.396c0.109-0.015,0.302,0.196,0.371,0.343
		C16.893,5.513,17.15,6.134,17.459,6.834z"/>
	<path fill="#231F20" d="M14.666,1.154c-3.805,3.78-5.185,8.159-3.923,13.323c-1.374-0.867-2.422-4.389-2.023-6.61
		C9.362,4.293,12.562,1.696,14.666,1.154z"/>
	<path fill="#231F20" d="M22.912,1.082c4.089,4.079,1.854,11.736-3.919,13.504C22.794,10.771,24.225,6.391,22.912,1.082z"/>
</g>
</svg>
