<?xml version="1.0" encoding="utf-8"?>
<!-- Generator: Adobe Illustrator 16.0.4, SVG Export Plug-In . SVG Version: 6.00 Build 0)  -->
<!DOCTYPE svg PUBLIC "-//W3C//DTD SVG 1.1//EN" "http://www.w3.org/Graphics/SVG/1.1/DTD/svg11.dtd">
<svg version="1.1" id="Layer_1" xmlns="http://www.w3.org/2000/svg" xmlns:xlink="http://www.w3.org/1999/xlink" x="0px" y="0px"
	 width="20px" height="12px" viewBox="0 0 20 12" enable-background="new 0 0 20 12" xml:space="preserve">
<g>
	<path fill-rule="evenodd" clip-rule="evenodd" fill="#676767" d="M4.914,4.544C4.896,4.654,4.89,4.747,4.866,4.833
		C4.44,6.334,4.018,7.838,3.581,9.335C3.507,9.586,3.383,9.83,3.245,10.053c-0.069,0.111-0.225,0.17-0.409,0.298
		c0.143-0.587,0.057-0.806-0.269-0.862C2.253,9.436,1.944,9.624,1.884,9.905c-0.062,0.289,0.134,0.561,0.485,0.617
		c0.823,0.131,1.535-0.119,2.002-0.804C4.712,9.22,4.993,8.657,5.19,8.085c0.369-1.072,0.664-2.168,0.977-3.257
		C6.231,4.601,6.33,4.503,6.579,4.506c0.446,0.006,0.5-0.076,0.482-0.597c-0.189-0.016-0.38-0.033-0.57-0.049
		C6.598,2.739,7.31,1.704,7.939,1.779C7.911,1.881,7.885,1.977,7.855,2.072c-0.102,0.33,0.004,0.561,0.288,0.63
		C8.437,2.774,8.688,2.59,8.74,2.268c0.069-0.435-0.169-0.751-0.626-0.804c-0.768-0.09-1.441,0.134-1.952,0.71
		C5.837,2.54,5.602,2.982,5.298,3.369C5.15,3.557,4.957,3.79,4.748,3.834c-0.4,0.086-0.431,0.313-0.41,0.644
		C4.534,4.501,4.715,4.521,4.914,4.544z"/>
	<path fill-rule="evenodd" clip-rule="evenodd" fill="#676767" d="M11.408,1.544C10.041,1.897,7.96,3.587,7.542,5.913
		C7.283,7.358,7.964,9.65,8.858,10.215C8.038,6.853,8.935,4.005,11.408,1.544z"/>
	<path fill-rule="evenodd" clip-rule="evenodd" fill="#676767" d="M16.771,1.498c0.852,3.456-0.077,6.306-2.549,8.788
		C17.974,9.137,19.428,4.152,16.771,1.498z"/>
	<path fill="#676767" d="M14.804,8.293c0.018,0.049,0.008,0.117-0.031,0.187c-0.124,0.23-0.267,0.451-0.417,0.645
		c-0.067,0.087-0.191,0.144-0.295,0.144c-1.402,0-2.805,0-4.207,0c-0.072,0-0.128-0.03-0.151-0.087S9.693,9.054,9.735,8.993
		c0.311-0.449,0.54-0.836,0.833-1.305c0.286-0.464,0.636-1.01,1.031-1.591c0.006-0.012,0.013-0.046,0.01-0.058
		c-0.176-0.583-0.317-1.129-0.429-1.592c-0.114-0.47-0.199-0.855-0.339-1.305c-0.019-0.061-0.007-0.13,0.038-0.187
		s0.112-0.088,0.184-0.087c1.402,0,2.805,0,4.208,0c0.104-0.001,0.206,0.056,0.239,0.143c0.078,0.194,0.137,0.415,0.175,0.646
		c0.011,0.07-0.005,0.139-0.039,0.186c-0.035,0.047-0.084,0.065-0.137,0.05c-0.106-0.03-0.223-0.057-0.348-0.081
		c-0.089-0.018-0.182-0.099-0.219-0.191c-0.019-0.051-0.039-0.102-0.061-0.15c-0.002-0.004-0.012-0.011-0.018-0.013
		c-0.909-0.109-2.03-0.117-3.007-0.019c0.202,0.618,0.498,1.515,0.823,2.497c0.026,0.079,0.006,0.189-0.05,0.268
		c-0.039,0.055-0.077,0.108-0.115,0.163c-0.655,0.92-1.238,1.749-1.653,2.333c0.94,0.1,2.065,0.091,3.017-0.018
		c0.004-0.002,0.017-0.011,0.022-0.015c0.038-0.049,0.077-0.099,0.116-0.149c0.069-0.091,0.194-0.174,0.29-0.19
		c0.134-0.024,0.26-0.053,0.378-0.083C14.745,8.229,14.788,8.246,14.804,8.293z"/>
</g>
</svg>
