<?xml version="1.0" encoding="utf-8"?>
<!-- Generator: Adobe Illustrator 15.1.0, SVG Export Plug-In . SVG Version: 6.00 Build 0)  -->
<!DOCTYPE svg PUBLIC "-//W3C//DTD SVG 1.1//EN" "http://www.w3.org/Graphics/SVG/1.1/DTD/svg11.dtd">
<svg version="1.1" id="Layer_1" xmlns="http://www.w3.org/2000/svg" xmlns:xlink="http://www.w3.org/1999/xlink" x="0px" y="0px"
	 width="19px" height="19px" viewBox="0 0 19 19" enable-background="new 0 0 19 19" xml:space="preserve">
<path fill="#BCBCBC" d="M8.922,9.24L5.949,7.092c-0.099-0.07-0.229-0.081-0.337-0.026C5.504,7.121,5.437,7.23,5.437,7.352V8.75
	H2.885V4.035c0-0.295-0.24-0.535-0.537-0.535c-0.298,0-0.539,0.24-0.539,0.535v10.929c0,0.295,0.241,0.536,0.539,0.536
	c0.297,0,0.537-0.241,0.537-0.536v-4.713h2.552v1.397c0,0.121,0.067,0.232,0.176,0.286C5.659,11.959,5.71,11.97,5.76,11.97
	c0.067,0,0.133-0.021,0.189-0.061L8.922,9.76C9.005,9.699,9.055,9.604,9.055,9.5S9.005,9.301,8.922,9.24z"/>
<path fill="#BCBCBC" d="M16.961,3.5c-0.297,0-0.539,0.24-0.539,0.535V8.75h-2.766V7.352c0-0.121-0.068-0.23-0.177-0.286
	c-0.107-0.055-0.237-0.044-0.337,0.026L10.171,9.24c-0.084,0.061-0.134,0.156-0.134,0.26s0.05,0.199,0.134,0.26l2.972,2.149
	c0.057,0.04,0.123,0.061,0.191,0.061c0.049,0,0.1-0.011,0.146-0.035c0.108-0.054,0.177-0.165,0.177-0.285v-1.398h2.766v4.713
	c0,0.295,0.242,0.536,0.539,0.536c0.298,0,0.539-0.241,0.539-0.536V4.035C17.5,3.74,17.259,3.5,16.961,3.5z"/>
</svg>
