<?xml version="1.0" encoding="utf-8"?>
<!-- Generator: Adobe Illustrator 15.1.0, SVG Export Plug-In . SVG Version: 6.00 Build 0)  -->
<!DOCTYPE svg PUBLIC "-//W3C//DTD SVG 1.1//EN" "http://www.w3.org/Graphics/SVG/1.1/DTD/svg11.dtd">
<svg version="1.1" id="Layer_1" xmlns="http://www.w3.org/2000/svg" xmlns:xlink="http://www.w3.org/1999/xlink" x="0px" y="0px"
	 width="19px" height="19px" viewBox="0 0 19 19" enable-background="new 0 0 19 19" xml:space="preserve">
<path fill="#BCBCBC" d="M5.908,5.901H3.384C3.172,5.901,3,6.089,3,6.322v9.257C3,15.81,3.172,16,3.384,16h2.524
	c0.211,0,0.383-0.19,0.383-0.421V6.322C6.291,6.089,6.119,5.901,5.908,5.901"/>
<path fill="#BCBCBC" d="M10.763,9.118H8.239c-0.212,0-0.383,0.187-0.383,0.421v6.04C7.855,15.81,8.027,16,8.239,16h2.524
	c0.211,0,0.383-0.19,0.383-0.421v-6.04C11.146,9.305,10.974,9.118,10.763,9.118"/>
<path fill="#BCBCBC" d="M15.617,3h-2.523c-0.212,0-0.384,0.187-0.384,0.42v12.159c0,0.23,0.172,0.421,0.384,0.421h2.523
	C15.829,16,16,15.81,16,15.579V3.42C16,3.187,15.829,3,15.617,3"/>
<rect fill="none" width="19" height="19"/>
</svg>
