<?xml version="1.0" encoding="utf-8"?>
<!-- Generator: Adobe Illustrator 16.0.3, SVG Export Plug-In . SVG Version: 6.00 Build 0)  -->
<!DOCTYPE svg PUBLIC "-//W3C//DTD SVG 1.1//EN" "http://www.w3.org/Graphics/SVG/1.1/DTD/svg11.dtd">
<svg version="1.1" id="Layer_1" xmlns="http://www.w3.org/2000/svg" xmlns:xlink="http://www.w3.org/1999/xlink" x="0px" y="0px"
	 width="38px" height="38px" viewBox="19 19 38 38" enable-background="new 19 19 38 38" xml:space="preserve">
<path fill="#565656" d="M38.73,41.289c0.404,0,0.73,0.326,0.73,0.73c0,0.403-0.326,0.73-0.73,0.73c-0.403,0-0.73-0.327-0.73-0.73
	C38,41.615,38.327,41.289,38.73,41.289z M38.73,43.968c0.404,0,0.73,0.327,0.73,0.731c0,0.402-0.326,0.73-0.73,0.73
	c-0.403,0-0.73-0.328-0.73-0.73C38,44.295,38.327,43.968,38.73,43.968z M25,19h26v4h-3c-0.501,3.46-2.162,12.44-7.026,15
	c4.864,2.561,6.525,11.539,7.026,15h3v4H25v-4h3c0.501-3.461,2.162-12.439,7.026-15C30.162,35.44,28.501,26.46,28,23h-3V19z
	 M31.5,23c0,0,0.646,4.724,2.093,8.417c2.356-1.116,6.997-2.92,9.204-1.057C43.983,26.945,44.5,23,44.5,23H31.5z M44.525,53
	c0,0-2.141-13.539-6.525-13.539c-3.796,0-6,10.245-6.51,12.893c2.273-1.625,5.9-4.609,6.875-5.584c0,0,2.704,4.518,5.303,6.23
	H44.525z"/>
</svg>
