<?xml version="1.0" encoding="utf-8"?>
<!-- Generator: Adobe Illustrator 15.1.0, SVG Export Plug-In . SVG Version: 6.00 Build 0)  -->
<!DOCTYPE svg PUBLIC "-//W3C//DTD SVG 1.1//EN" "http://www.w3.org/Graphics/SVG/1.1/DTD/svg11.dtd">
<svg version="1.1" id="Layer_1" xmlns="http://www.w3.org/2000/svg" xmlns:xlink="http://www.w3.org/1999/xlink" x="0px" y="0px"
	 width="34px" height="19px" viewBox="0 0 34 19" enable-background="new 0 0 34 19" xml:space="preserve">
<path fill="#BCBCBC" d="M24.957,2H9.045C5.162,2,2,5.192,2,9.114V9.89C2,13.81,5.162,17,9.045,17h15.912C28.838,17,32,13.81,32,9.89
	V9.114C32,5.192,28.838,2,24.957,2z M17,14.886H9.045c-2.727,0-4.948-2.241-4.948-4.996V9.114c0-2.755,2.221-4.997,4.948-4.997H17
	V14.886z M27.641,10.428h-2.628v2.621c0,0.514-0.413,0.929-0.927,0.929c-0.511,0-0.926-0.415-0.926-0.929v-2.621h-2.623
	c-0.197,0-0.379-0.063-0.529-0.168c-0.239-0.168-0.396-0.445-0.396-0.76c0-0.513,0.413-0.927,0.926-0.927h1.183h1.44V6.802V5.949
	c0-0.512,0.415-0.927,0.926-0.927c0.045,0,0.086,0.008,0.128,0.014c0.452,0.062,0.799,0.445,0.799,0.913v2.624h2.628
	c0.511,0,0.926,0.414,0.926,0.927C28.566,10.012,28.151,10.428,27.641,10.428z"/>
</svg>
