<?xml version="1.0" encoding="utf-8"?>
<!-- Generator: Adobe Illustrator 16.0.3, SVG Export Plug-In . SVG Version: 6.00 Build 0)  -->
<!DOCTYPE svg PUBLIC "-//W3C//DTD SVG 1.1//EN" "http://www.w3.org/Graphics/SVG/1.1/DTD/svg11.dtd">
<svg version="1.1" id="Layer_1" xmlns="http://www.w3.org/2000/svg" xmlns:xlink="http://www.w3.org/1999/xlink" x="0px" y="0px"
	 width="17px" height="17px" viewBox="0 0 17 17" enable-background="new 0 0 17 17" xml:space="preserve">
<path fill="#FFFFFF" d="M8.498,0C3.804,0,0,3.804,0,8.499C0,13.195,3.804,17,8.498,17S17,13.195,17,8.499C17,3.804,13.192,0,8.498,0
	z M12.311,9.495H9.492v2.813c0,0.552-0.442,0.997-0.994,0.997c-0.549,0-0.994-0.445-0.994-0.997V9.495H4.691
	c-0.551,0-0.993-0.446-0.993-0.994c0-0.551,0.442-0.994,0.993-0.994h2.813V4.69c0-0.549,0.445-0.993,0.994-0.993
	c0.552,0,0.994,0.444,0.994,0.993v2.817h2.818c0.548,0,0.993,0.443,0.993,0.994C13.304,9.049,12.858,9.495,12.311,9.495z"/>
</svg>
