<?xml version="1.0" encoding="utf-8"?>
<!-- Generator: Adobe Illustrator 16.0.4, SVG Export Plug-In . SVG Version: 6.00 Build 0)  -->
<!DOCTYPE svg PUBLIC "-//W3C//DTD SVG 1.1//EN" "http://www.w3.org/Graphics/SVG/1.1/DTD/svg11.dtd">
<svg version="1.1" id="Layer_1" xmlns="http://www.w3.org/2000/svg" xmlns:xlink="http://www.w3.org/1999/xlink" x="0px" y="0px"
	 width="50px" height="50px" viewBox="0 0 50 50" enable-background="new 0 0 50 50" xml:space="preserve">
<g>
	<path fill="#FFFFFF" d="M27.455,38.421c0,0.699-0.303,1.334-0.896,1.885c-0.588,0.545-1.373,0.82-2.338,0.82
		c-0.992,0-1.811-0.273-2.43-0.814c-0.635-0.551-0.955-1.188-0.955-1.891v-1.209c0-0.703,0.322-1.34,0.955-1.891
		c0.619-0.539,1.438-0.812,2.43-0.812c0.965,0,1.75,0.277,2.338,0.82c0.594,0.551,0.896,1.186,0.896,1.883V38.421z"/>
	<path fill="#FFFFFF" d="M34.117,20.308c-0.389,0.762-0.887,1.432-1.479,1.994c-0.58,0.549-1.215,1.044-1.887,1.473
		c-0.643,0.408-1.248,0.852-1.797,1.315c-0.539,0.454-0.99,0.962-1.344,1.511c-0.336,0.523-0.506,1.178-0.506,1.943v0.76
		c0,0.504-0.248,1.031-0.736,1.572c-0.494,0.545-1.154,0.838-1.961,0.871l-0.166,0.004c-0.818,0-1.484-0.234-1.98-0.698
		c-0.533-0.497-0.801-1.056-0.801-1.659c0-1.41,0.195-2.611,0.584-3.572c0.385-0.952,0.859-1.779,1.416-2.459
		c0.553-0.678,1.178-1.27,1.854-1.762c0.645-0.467,1.242-0.93,1.773-1.371c0.512-0.428,0.953-0.885,1.311-1.354
		c0.328-0.435,0.49-0.962,0.49-1.608c0-1.066-0.289-1.83-0.887-2.334c-0.605-0.512-1.443-0.771-2.488-0.771
		c-0.695,0-1.293,0.043-1.775,0.129c-0.471,0.083-0.906,0.223-1.295,0.417c-0.383,0.19-0.744,0.456-1.074,0.786
		c-0.346,0.346-0.711,0.783-1.084,1.301c-0.336,0.473-0.836,0.83-1.48,1.062c-0.662,0.239-1.398,0.175-2.164-0.192
		c-0.689-0.344-1.111-0.793-1.254-1.338c-0.135-0.5-0.135-1.025-0.002-1.557c0.098-0.453,0.369-1.012,0.83-1.695
		c0.451-0.67,1.094-1.321,1.912-1.938c0.814-0.614,1.846-1.151,3.064-1.593c1.227-0.443,2.695-0.668,4.367-0.668
		c1.648,0,3.078,0.249,4.248,0.742c1.176,0.496,2.137,1.157,2.854,1.967c0.715,0.809,1.242,1.738,1.568,2.762
		c0.322,1.014,0.486,2.072,0.486,3.146C34.715,18.583,34.514,19.532,34.117,20.308z"/>
</g>
</svg>
