<?xml version="1.0" encoding="utf-8"?>
<!-- Generator: Adobe Illustrator 16.0.3, SVG Export Plug-In . SVG Version: 6.00 Build 0)  -->
<!DOCTYPE svg PUBLIC "-//W3C//DTD SVG 1.1//EN" "http://www.w3.org/Graphics/SVG/1.1/DTD/svg11.dtd">
<svg version="1.1" id="Layer_1" xmlns="http://www.w3.org/2000/svg" xmlns:xlink="http://www.w3.org/1999/xlink" x="0px" y="0px"
	 width="17px" height="17px" viewBox="0 0 17 17" enable-background="new 0 0 17 17" xml:space="preserve">
<path fill="#616262" d="M16,0h-6H9v1v6v1h1h6h1V7V1V0H16z M16,7h-6V1h6V7z"/>
<g>
	<rect x="3.001" y="13" fill="#616262" width="1" height="1"/>
	<rect x="4.001" y="12" fill="#616262" width="1" height="1"/>
	<rect x="5" y="11" fill="#616262" width="1" height="1"/>
	<rect x="6" y="10" fill="#616262" width="1" height="1"/>
	<rect x="4.001" y="9" fill="#616262" width="4" height="1"/>
	<rect x="7.001" y="9" fill="#616262" width="1" height="4"/>
</g>
<path fill="#616262" d="M2,15v1H1v-1H2 M3,14H2H1H0v1v1v1h1h1h1v-1v-1V14L3,14z"/>
</svg>
