<?xml version="1.0" encoding="utf-8"?>
<!-- Generator: Adobe Illustrator 16.0.4, SVG Export Plug-In . SVG Version: 6.00 Build 0)  -->
<!DOCTYPE svg PUBLIC "-//W3C//DTD SVG 1.1//EN" "http://www.w3.org/Graphics/SVG/1.1/DTD/svg11.dtd">
<svg version="1.1" id="Layer_1" xmlns="http://www.w3.org/2000/svg" xmlns:xlink="http://www.w3.org/1999/xlink" x="0px" y="0px"
	 width="19px" height="19px" viewBox="0 0 19 19" enable-background="new 0 0 19 19" xml:space="preserve">
<g>
	<path fill="#FFFFFF" d="M13.502,10.145c-0.275,0-0.499,0.224-0.499,0.498v2.359H5.998v-2.359c0-0.274-0.223-0.498-0.498-0.498
		S5,10.368,5,10.643v2.858C5,13.776,5.225,14,5.5,14h8.002C13.777,14,14,13.776,14,13.501v-2.858
		C14,10.368,13.777,10.145,13.502,10.145z"/>
	<path fill="#FFFFFF" d="M9.303,11.195c0.047,0.062,0.12,0.102,0.197,0.102c0.08,0,0.152-0.039,0.198-0.102l1.636-2.252
		c0.053-0.074,0.062-0.172,0.02-0.254c-0.041-0.081-0.126-0.134-0.218-0.134h-1.064V5.571C10.071,5.256,9.816,5,9.5,5
		C9.186,5,8.931,5.256,8.931,5.571v2.984H7.865c-0.092,0-0.177,0.053-0.217,0.134c-0.043,0.082-0.035,0.18,0.02,0.254L9.303,11.195z
		"/>
</g>
</svg>
