<?xml version="1.0" encoding="utf-8"?>
<!-- Generator: Adobe Illustrator 16.0.4, SVG Export Plug-In . SVG Version: 6.00 Build 0)  -->
<!DOCTYPE svg PUBLIC "-//W3C//DTD SVG 1.1//EN" "http://www.w3.org/Graphics/SVG/1.1/DTD/svg11.dtd">
<svg version="1.1" id="Layer_1" xmlns="http://www.w3.org/2000/svg" xmlns:xlink="http://www.w3.org/1999/xlink" x="0px" y="0px"
	 width="88px" height="88px" viewBox="0 0 88 88" enable-background="new 0 0 88 88" xml:space="preserve">
<circle fill="#B1B1B1" cx="44" cy="44" r="44"/>
<path fill="#FFFFFF" d="M44,82C23.047,82,6,64.953,6,44C6,23.047,23.047,6,44,6c20.953,0,38,17.047,38,38C82,64.953,64.953,82,44,82
	z"/>
<path fill="#B1B1B1" d="M69.3,56.021L49.679,21.705C48.723,20.032,46.938,19,45.001,19c-1.938,0-3.724,1.032-4.681,2.705
	l-19.62,34.317c-0.945,1.652-0.933,3.682,0.03,5.325C21.693,62.988,23.465,64,25.38,64h39.24c1.915,0,3.685-1.012,4.649-2.653
	C70.233,59.703,70.244,57.674,69.3,56.021z M47.681,57.694c-0.657,0.581-1.438,0.875-2.319,0.875c-0.89,0-1.678-0.29-2.344-0.863
	c-0.68-0.586-1.025-1.408-1.025-2.441c0-0.908,0.326-1.69,0.968-2.327c0.641-0.636,1.436-0.96,2.362-0.96
	c0.926,0,1.727,0.322,2.381,0.957c0.657,0.638,0.99,1.422,0.99,2.33C48.693,56.284,48.353,57.101,47.681,57.694z M48.552,35.598
	l-0.854,9.718c-0.096,1.21-0.302,2.122-0.63,2.786c-0.361,0.732-0.991,1.121-1.824,1.121c-0.848,0-1.473-0.381-1.808-1.1
	c-0.297-0.641-0.502-1.57-0.626-2.844l-0.637-9.458c-0.12-1.869-0.18-3.173-0.18-3.987c0-1.177,0.323-2.116,0.959-2.791
	c0.642-0.681,1.494-1.028,2.53-1.028c1.278,0,2.153,0.461,2.601,1.369c0.411,0.837,0.611,1.995,0.611,3.536
	C48.693,33.793,48.646,34.694,48.552,35.598z"/>
</svg>
