<?xml version="1.0" encoding="utf-8"?>
<!-- Generator: Adobe Illustrator 16.0.4, SVG Export Plug-In . SVG Version: 6.00 Build 0)  -->
<!DOCTYPE svg PUBLIC "-//W3C//DTD SVG 1.1//EN" "http://www.w3.org/Graphics/SVG/1.1/DTD/svg11.dtd">
<svg version="1.1" id="Layer_1" xmlns="http://www.w3.org/2000/svg" xmlns:xlink="http://www.w3.org/1999/xlink" x="0px" y="0px"
	 width="1100px" height="217px" viewBox="0 0 1100 217" enable-background="new 0 0 1100 217" xml:space="preserve">
<g>
	<path fill="#595B5F" d="M0,212.283L28.872,0H69.82l46.548,126.192c2.748,7.074,4.809,16.705,6.185,28.893l0.294,7.37l0.59-7.37
		c0.589-5.896,1.422-11.3,2.505-16.22c1.077-4.908,2.208-9.138,3.388-12.673L176.172,0h40.947l28.871,212.283h-43.306
		L189.427,99.357c-0.396-2.355-0.64-5.791-0.735-10.316c-0.101-4.52-0.146-8.153-0.146-10.91V61.621l-0.886,7.667
		c-0.786,5.111-1.766,9.878-2.945,14.295c-1.178,4.426-2.556,8.899-4.125,13.418l-43.012,115.281h-29.165L65.402,97.002
		c-1.376-3.341-2.606-7.026-3.683-11.055c-1.083-4.027-2.407-10.175-3.978-18.427l-1.179-5.898l0.59,6.489
		c0,3.935,0.046,8.061,0.146,12.378c0.099,4.329,0.246,8.849,0.444,13.566c0,2.554-0.1,4.323-0.294,5.302L43.012,212.283H0z"/>
	<path fill="#595B5F" d="M258.065,140.046c0-21.814,7.315-39.948,21.946-54.394c14.629-14.447,33.337-21.671,56.122-21.671
		c22.782,0,41.539,7.276,56.269,21.815c14.73,14.551,22.095,32.728,22.095,54.546c0,5.505-1.177,14.201-3.537,26.093
		c-2.356,11.896-10.558,23.294-24.597,34.2C372.318,211.542,355.578,217,336.133,217c-22.785,0-41.493-7.225-56.122-21.672
		C265.38,180.884,258.065,162.455,258.065,140.046z M298.129,139.897c0,10.462,2.8,19.384,8.398,26.781
		c5.596,7.401,11.143,11.639,16.644,12.724c5.497,1.09,9.82,1.625,12.962,1.625c3.139,0,7.511-0.535,13.11-1.625
		c5.597-1.085,11.196-5.228,16.791-12.429c5.599-7.194,8.396-16.023,8.396-26.485c0-2.957-0.492-7.294-1.473-13.018
		c-0.985-5.721-4.123-11.342-9.426-16.863c-5.304-5.518-10.707-8.827-16.205-9.911c-5.5-1.089-8.937-1.63-10.309-1.63
		c-2.557,0-6.878,0.593-12.964,1.78c-6.089,1.179-11.931,5.374-17.527,12.572C300.929,120.621,298.129,129.445,298.129,139.897z"/>
	<path fill="#595B5F" d="M436,212.283V67.811h42.422v20.64c3.729-7.468,9.621-13.46,17.678-17.986
		c8.05-4.515,17.279-6.78,27.692-6.78c31.421,0,47.135,18.973,47.135,56.903v91.695H528.8v-80.789c0-6.09-0.347-11.247-1.031-15.474
		c-0.69-4.224-3.24-8.058-7.661-11.5c-4.417-3.436-9.477-5.163-15.174-5.163c-4.123,0-8.346,1.138-12.663,3.395
		c-4.323,2.26-7.711,6.045-10.167,11.348c-2.458,5.307-3.682,12.289-3.682,20.936v77.248H436z"/>
	<path fill="#595B5F" d="M702.906,86.387V0h42.419v212.283h-42.419V192.53c-2.947,7.074-8.252,12.922-15.91,17.539
		c-7.661,4.617-16.791,6.931-27.397,6.931c-3.93,0-10.605-0.841-20.031-2.505c-9.429-1.675-18.812-7.712-28.135-18.136
		c-9.33-10.412-14.833-20.981-16.501-31.695c-1.668-10.71-2.499-19.013-2.499-24.909c0-19.067,5.051-35.429,15.167-49.091
		c10.114-13.657,20.521-21.572,31.229-23.735c10.7-2.16,18.016-3.244,21.951-3.244c9.426,0,17.866,2.062,25.333,6.189
		C693.575,74.006,699.172,79.51,702.906,86.387z M634.558,140.934c0,9.435,2.012,17.446,6.04,24.029
		c4.021,6.588,8.343,10.757,12.96,12.528c4.613,1.771,8.104,2.851,10.46,3.245c2.358,0.394,4.713,0.591,7.071,0.591
		c8.64,0,16.202-3.048,22.683-9.143c6.48-6.09,10.409-14.152,11.784-24.176c0-1.373,0.097-2.898,0.297-4.57
		c0.191-1.67,0.291-2.897,0.291-3.684c0-11.797-3.387-21.421-10.164-28.895c-6.772-7.471-15.271-11.204-25.481-11.204
		c-10.215,0-18.758,3.833-25.63,11.498C637.991,118.821,634.558,128.746,634.558,140.934z"/>
	<path fill="#595B5F" d="M772.134,212.283V67.811h42.42v24.475c1.569-8.452,6.04-15.279,13.405-20.49
		c7.364-5.208,16.35-7.814,26.958-7.814c3.925,0,6.868,0,8.835,0l5.008,1.475l-7.659,41.271l-3.533-1.175
		c-1.577-0.395-3.438-0.686-5.6-0.888c-2.162-0.191-4.025-0.291-5.597-0.291c-10.413,0-17.822,2.653-22.242,7.961
		c-4.419,5.308-7.121,9.726-8.1,13.266c-0.986,3.54-1.476,9.042-1.476,16.51v70.173H772.134z"/>
	<path fill="#9DC03B" d="M880.232,26.83c0-6.286,2.354-11.594,7.068-15.923c4.713-4.317,10.703-6.483,17.972-6.483
		c7.263,0,13.353,2.213,18.263,6.633c4.91,4.426,7.364,9.684,7.364,15.773c0,6.095-2.454,11.353-7.364,15.773
		c-4.91,4.426-10.898,6.636-17.97,6.636c-7.268,0-13.309-2.21-18.118-6.636C882.634,38.183,880.232,32.925,880.232,26.83z"/>
	<rect x="884.354" y="67.811" fill="#595B5F" width="42.423" height="144.473"/>
	<path fill="#595B5F" d="M1057.578,87.569V67.811H1100v144.473h-42.422v-18.577c-3.735,7.168-9.332,12.848-16.791,17.021
		c-7.468,4.179-16.308,6.272-26.515,6.272c-2.558,0-5.011,0-7.365,0c-2.358-0.591-7.174-1.575-14.437-2.951
		c-7.268-1.384-15.517-7.094-24.746-17.138c-9.232-10.038-14.93-20.773-17.086-32.198c-2.165-11.422-3.241-19.988-3.241-25.703
		c0-21.262,6.432-39.037,19.296-53.318c12.86-14.276,28.327-21.417,46.398-21.417c3.34,0,8,0.494,13.996,1.473
		c5.987,0.99,11.781,3.345,17.378,7.08C1050.066,76.56,1054.434,81.479,1057.578,87.569z M988.642,141.826l0.884,8.317
		c3.533,18.014,10.017,27.814,19.443,29.397c9.427,1.589,14.729,2.374,15.907,2.374c5.694,0,12.472-2.228,20.327-6.678
		c7.855-4.459,12.375-11.09,13.553-19.902c1.178-8.805,1.768-14.001,1.768-15.585c0-6.93-1.377-13.316-4.125-19.156
		c-2.752-5.841-6.922-10.841-12.52-14.997c-5.601-4.157-12.131-6.239-19.591-6.239c-7.467,0-14.289,2.329-20.476,6.983
		c-6.185,4.649-10.264,10.245-12.226,16.776C989.619,129.647,988.642,135.887,988.642,141.826z"/>
</g>
</svg>
