<?xml version="1.0" encoding="utf-8"?>
<!-- Generator: Adobe Illustrator 16.0.3, SVG Export Plug-In . SVG Version: 6.00 Build 0)  -->
<!DOCTYPE svg PUBLIC "-//W3C//DTD SVG 1.1//EN" "http://www.w3.org/Graphics/SVG/1.1/DTD/svg11.dtd">
<svg version="1.1" id="Layer_1" xmlns="http://www.w3.org/2000/svg" xmlns:xlink="http://www.w3.org/1999/xlink" x="0px" y="0px"
	 width="30px" height="30px" viewBox="0 0 30 30" enable-background="new 0 0 30 30" xml:space="preserve">
<g>
	<path fill="#DEECEC" d="M13.421,29.497c-0.037-0.004-0.073-0.01-0.105-0.02c-0.173-0.081-0.23-0.118-0.274-0.162L0.682,16.801
		c-0.242-0.246-0.242-0.644,0.002-0.886L16.023,0.68c0.116-0.116,0.271-0.18,0.434-0.18l12.427,0.058
		c0.053,0.001,0.109,0.009,0.161,0.024l0.095,0.043c0.082,0.039,0.14,0.076,0.18,0.118c0.116,0.118,0.183,0.279,0.182,0.445
		L29.44,13.645c-0.001,0.163-0.068,0.324-0.186,0.441L13.918,29.319c-0.044,0.044-0.103,0.081-0.18,0.114
		c-0.127,0.049-0.193,0.063-0.248,0.063L13.421,29.497z M23.479,3.232c-0.239,0-0.482,0.029-0.743,0.088
		c-0.058,0.014-0.111,0.03-0.164,0.046c-0.231,0.069-0.413,0.141-0.591,0.229c-0.1,0.05-0.156,0.078-0.211,0.112
		c-0.263,0.157-0.469,0.313-0.645,0.489c-1.3,1.293-1.31,3.405-0.021,4.706c0.174,0.174,0.376,0.332,0.62,0.485
		c0.062,0.037,0.116,0.065,0.172,0.093c0.199,0.105,0.37,0.177,0.543,0.232c0.088,0.03,0.157,0.053,0.228,0.07
		c0.23,0.057,0.46,0.09,0.682,0.098c0,0,0.115,0.007,0.117,0.007c0.229,0,0.466-0.028,0.727-0.086l0.152-0.043
		c0.249-0.074,0.431-0.146,0.605-0.234c0.092-0.046,0.15-0.075,0.209-0.11c0.261-0.156,0.465-0.312,0.644-0.488
		c1.302-1.292,1.313-3.404,0.024-4.709c-0.172-0.174-0.369-0.329-0.622-0.486c-0.046-0.029-0.095-0.055-0.145-0.081
		c-0.228-0.117-0.394-0.188-0.566-0.245c-0.075-0.025-0.152-0.05-0.232-0.07c-0.23-0.057-0.46-0.09-0.68-0.097L23.479,3.232z"/>
	<path d="M16.457,0l0.003,1l0.813,0.003L28.9,1.067l0.025,0.01c0.018,0.008,0.034,0.015,0.04,0.018
		c0.022,0.023,0.035,0.056,0.035,0.088L28.94,13.644c0,0.031-0.015,0.064-0.037,0.086l-15.33,15.229l-0.079,0.038h-0.018
		l-0.037-0.016l-0.018-0.005c-0.017-0.009-0.025-0.014-0.027-0.014l0,0L1.038,16.451c-0.05-0.052-0.051-0.133-0.002-0.181
		L16.375,1.035C16.397,1.013,16.427,1,16.457,1V0 M23.291,10.38l0.071,0.009h0.071h0.025c0.268,0,0.542-0.032,0.861-0.103
		c0.059-0.014,0.115-0.031,0.173-0.049l0.056-0.017c0.217-0.064,0.428-0.148,0.654-0.263c0.072-0.036,0.143-0.071,0.214-0.114
		c0.291-0.175,0.532-0.358,0.74-0.563c1.495-1.485,1.507-3.914,0.025-5.415c-0.199-0.203-0.427-0.38-0.708-0.556
		c-0.061-0.038-0.123-0.071-0.186-0.104l-0.064-0.034l-0.001,0c-0.195-0.1-0.383-0.178-0.568-0.239
		c-0.091-0.03-0.183-0.06-0.271-0.081c-0.253-0.063-0.505-0.1-0.74-0.11c-0.044-0.006-0.094-0.009-0.164-0.01
		c-0.277,0-0.557,0.033-0.86,0.102c-0.067,0.016-0.133,0.035-0.231,0.066c-0.216,0.064-0.428,0.147-0.671,0.269
		c-0.07,0.035-0.14,0.071-0.199,0.107c-0.303,0.181-0.539,0.361-0.743,0.565c-1.496,1.488-1.507,3.917-0.022,5.416
		c0.199,0.2,0.431,0.382,0.723,0.563c0.064,0.039,0.129,0.073,0.225,0.121c0.188,0.1,0.386,0.183,0.601,0.253
		c0.081,0.026,0.162,0.053,0.248,0.074C22.799,10.332,23.05,10.368,23.291,10.38 M16.457,0c-0.295,0-0.577,0.118-0.786,0.325
		L0.332,15.561c-0.439,0.437-0.442,1.148-0.006,1.592l12.36,12.515c0.098,0.099,0.211,0.167,0.33,0.223
		c0.027,0.013,0.055,0.024,0.084,0.033c0.025,0.011,0.053,0.028,0.08,0.036c0.094,0.026,0.195,0.04,0.293,0.041
		c0.008,0,0.014-0.004,0.021-0.004c0.121-0.001,0.24-0.027,0.355-0.067c0.029-0.01,0.059-0.021,0.088-0.036
		c0.119-0.052,0.235-0.121,0.333-0.219l15.338-15.234c0.211-0.211,0.331-0.496,0.332-0.793l0.061-12.458
		c0.001-0.299-0.116-0.586-0.324-0.796c-0.094-0.096-0.205-0.164-0.324-0.22c-0.026-0.013-0.055-0.024-0.084-0.035
		s-0.055-0.028-0.086-0.037c-0.096-0.027-0.196-0.042-0.297-0.043L17.278,0.003L16.464,0C16.461,0,16.459,0,16.457,0L16.457,0z
		 M23.434,9.389c-0.021,0-0.045-0.006-0.067-0.007c-0.194-0.007-0.389-0.036-0.578-0.083c-0.066-0.017-0.131-0.039-0.195-0.061
		c-0.146-0.047-0.289-0.107-0.426-0.18C22.106,9.027,22.048,9,21.99,8.965c-0.187-0.117-0.367-0.25-0.53-0.413
		c-1.098-1.109-1.086-2.901,0.02-4.001c0.168-0.168,0.357-0.3,0.552-0.416c0.057-0.035,0.115-0.062,0.174-0.091
		c0.151-0.076,0.306-0.136,0.465-0.183c0.059-0.018,0.116-0.038,0.177-0.052c0.208-0.047,0.419-0.076,0.633-0.076
		c0.005,0,0.011,0,0.016,0c0.022,0,0.047,0.007,0.07,0.008c0.195,0.006,0.389,0.036,0.578,0.083
		c0.066,0.016,0.131,0.038,0.195,0.059c0.147,0.048,0.29,0.11,0.43,0.181c0.058,0.032,0.116,0.058,0.172,0.093
		c0.188,0.117,0.369,0.249,0.531,0.413c1.096,1.11,1.088,2.902-0.02,4.002c-0.169,0.167-0.356,0.299-0.55,0.415
		c-0.059,0.035-0.117,0.063-0.178,0.093c-0.148,0.075-0.302,0.136-0.46,0.183c-0.062,0.018-0.119,0.038-0.18,0.053
		c-0.206,0.045-0.416,0.074-0.626,0.074c-0.007,0-0.014,0-0.021,0C23.437,9.389,23.436,9.389,23.434,9.389L23.434,9.389z"/>
</g>
</svg>
