<?xml version="1.0" encoding="utf-8"?>
<!-- Generator: Adobe Illustrator 16.0.4, SVG Export Plug-In . SVG Version: 6.00 Build 0)  -->
<!DOCTYPE svg PUBLIC "-//W3C//DTD SVG 1.1//EN" "http://www.w3.org/Graphics/SVG/1.1/DTD/svg11.dtd">
<svg version="1.1" id="Layer_1" xmlns="http://www.w3.org/2000/svg" xmlns:xlink="http://www.w3.org/1999/xlink" x="0px" y="0px"
	 width="19px" height="19px" viewBox="0 0 19 19" enable-background="new 0 0 19 19" xml:space="preserve">
<path fill="#FFFFFF" d="M13.068,10.434h-2.641v2.634c0,0.519-0.415,0.934-0.931,0.934c-0.514,0-0.931-0.415-0.931-0.934v-2.634H5.93
	c-0.517,0-0.93-0.42-0.93-0.933c0-0.517,0.415-0.932,0.93-0.932h2.637V5.93c0-0.515,0.417-0.931,0.931-0.931
	c0.516,0,0.931,0.416,0.931,0.931v2.64h2.641C13.583,8.569,14,8.984,14,9.501C14,10.014,13.585,10.434,13.068,10.434z"/>
</svg>
