<?xml version="1.0" encoding="utf-8"?>
<!-- Generator: Adobe Illustrator 16.0.3, SVG Export Plug-In . SVG Version: 6.00 Build 0)  -->
<!DOCTYPE svg PUBLIC "-//W3C//DTD SVG 1.1//EN" "http://www.w3.org/Graphics/SVG/1.1/DTD/svg11.dtd">
<svg version="1.1" id="Layer_1" xmlns="http://www.w3.org/2000/svg" xmlns:xlink="http://www.w3.org/1999/xlink" x="0px" y="0px"
	 width="19px" height="19px" viewBox="0 0 19 19" enable-background="new 0 0 19 19" xml:space="preserve">
<path fill="#BCBCBC" d="M9.498,2C5.357,2,2,5.357,2,9.499C2,13.644,5.357,17,9.498,17C13.642,17,17,13.644,17,9.499
	C17,5.357,13.642,2,9.498,2z M12.861,10.379h-2.486v2.48c0,0.488-0.391,0.879-0.877,0.879c-0.484,0-0.876-0.391-0.876-0.879v-2.48
	H6.139c-0.486,0-0.876-0.395-0.876-0.878c0-0.486,0.391-0.877,0.876-0.877h2.483V6.138c0-0.484,0.392-0.876,0.876-0.876
	c0.486,0,0.877,0.392,0.877,0.876v2.486h2.486c0.485,0,0.877,0.391,0.877,0.877C13.738,9.984,13.347,10.379,12.861,10.379z"/>
</svg>
