<?xml version="1.0" encoding="utf-8"?>
<!-- Generator: Adobe Illustrator 16.0.4, SVG Export Plug-In . SVG Version: 6.00 Build 0)  -->
<!DOCTYPE svg PUBLIC "-//W3C//DTD SVG 1.1//EN" "http://www.w3.org/Graphics/SVG/1.1/DTD/svg11.dtd">
<svg version="1.1" id="Layer_1" xmlns="http://www.w3.org/2000/svg" xmlns:xlink="http://www.w3.org/1999/xlink" x="0px" y="0px"
	 width="16px" height="16px" viewBox="0 0 16 16" enable-background="new 0 0 16 16" xml:space="preserve">
<path fill="#8F8F8F" d="M15.927,10.157l-2.556-3.518c-0.071-0.099-0.187-0.157-0.309-0.157c-0.123,0-0.238,0.059-0.31,0.157
	l-2.556,3.518c-0.085,0.116-0.097,0.271-0.031,0.398c0.064,0.128,0.196,0.209,0.34,0.209h1.416c-0.309,0.521-0.701,0.997-1.178,1.4
	c-1.113,0.938-2.524,1.387-3.975,1.263c-1.45-0.124-2.765-0.804-3.702-1.917c-0.938-1.112-1.386-2.522-1.263-3.972
	c0.123-1.451,0.804-2.765,1.916-3.703C4.833,2.897,6.244,2.45,7.694,2.573c1.421,0.121,2.719,0.781,3.652,1.858
	c0.323,0.372,0.887,0.412,1.26,0.09c0.372-0.324,0.412-0.887,0.089-1.259c-1.241-1.43-2.963-2.306-4.85-2.467
	C5.921,0.632,4.048,1.227,2.57,2.471C1.094,3.716,0.19,5.462,0.026,7.387c-0.164,1.924,0.432,3.797,1.677,5.274
	s2.991,2.381,4.916,2.545c0.209,0.017,0.417,0.025,0.625,0.025c1.702,0,3.333-0.593,4.649-1.702c0.9-0.76,1.587-1.706,2.023-2.765
	h1.701c0.144,0,0.275-0.081,0.34-0.209C16.023,10.428,16.012,10.273,15.927,10.157z"/>
<path fill="#8F8F8F" d="M3.69,5.798C3.609,5.958,3.624,6.15,3.729,6.296l2.884,3.97C6.703,10.39,6.847,10.463,7,10.463
	s0.296-0.072,0.386-0.197l2.884-3.97c0.061-0.083,0.091-0.182,0.091-0.281c0-0.074-0.017-0.148-0.052-0.217
	c-0.082-0.16-0.246-0.261-0.426-0.261H4.117C3.937,5.537,3.772,5.638,3.69,5.798z"/>
</svg>
