<?xml version="1.0" encoding="utf-8"?>
<!-- Generator: Adobe Illustrator 16.0.4, SVG Export Plug-In . SVG Version: 6.00 Build 0)  -->
<!DOCTYPE svg PUBLIC "-//W3C//DTD SVG 1.1//EN" "http://www.w3.org/Graphics/SVG/1.1/DTD/svg11.dtd">
<svg version="1.1" id="Layer_1" xmlns="http://www.w3.org/2000/svg" xmlns:xlink="http://www.w3.org/1999/xlink" x="0px" y="0px"
	 width="15px" height="14px" viewBox="0 0 15 14" enable-background="new 0 0 15 14" xml:space="preserve">
<path fill="#4485F4" d="M14.933,9.089l-2.396-3.406c-0.067-0.096-0.176-0.152-0.291-0.152c-0.113,0-0.223,0.057-0.289,0.152
	L9.56,9.089C9.48,9.202,9.469,9.351,9.529,9.474c0.063,0.124,0.186,0.201,0.321,0.201h1.326c-0.289,0.507-0.656,0.967-1.104,1.357
	c-1.043,0.907-2.366,1.342-3.726,1.223c-1.359-0.121-2.591-0.779-3.471-1.856C1.997,9.322,1.576,7.957,1.691,6.554
	c0.116-1.404,0.754-2.677,1.797-3.585c1.043-0.908,2.365-1.341,3.726-1.222c1.332,0.117,2.548,0.756,3.425,1.799
	c0.303,0.36,0.831,0.398,1.18,0.086c0.35-0.313,0.388-0.859,0.084-1.219C10.739,1.03,9.125,0.181,7.355,0.025
	C5.551-0.132,3.795,0.444,2.41,1.648C1.025,2.854,0.178,4.544,0.025,6.407c-0.154,1.863,0.403,3.676,1.571,5.106
	c1.167,1.431,2.804,2.303,4.609,2.462C6.402,13.992,6.597,14,6.792,14c1.595,0,3.124-0.574,4.358-1.647
	c0.845-0.735,1.489-1.651,1.897-2.678h1.596c0.134,0,0.258-0.077,0.319-0.201C15.021,9.351,15.011,9.202,14.933,9.089z"/>
</svg>
