<?xml version="1.0" encoding="utf-8"?>
<!-- Generator: Adobe Illustrator 16.0.4, SVG Export Plug-In . SVG Version: 6.00 Build 0)  -->
<!DOCTYPE svg PUBLIC "-//W3C//DTD SVG 1.1//EN" "http://www.w3.org/Graphics/SVG/1.1/DTD/svg11.dtd">
<svg version="1.1" id="Layer_1" xmlns="http://www.w3.org/2000/svg" xmlns:xlink="http://www.w3.org/1999/xlink" x="0px" y="0px"
	 width="16px" height="16px" viewBox="0 0 16 16" enable-background="new 0 0 16 16" xml:space="preserve">
<path fill="#8F8F8F" d="M0.073,5.842L2.628,9.36C2.7,9.459,2.815,9.518,2.937,9.518c0.123,0,0.238-0.059,0.31-0.157l2.556-3.518
	c0.085-0.116,0.097-0.271,0.031-0.398c-0.064-0.128-0.196-0.209-0.34-0.209H4.078c0.309-0.521,0.701-0.997,1.178-1.4
	C6.369,2.897,7.78,2.448,9.23,2.572c1.449,0.124,2.765,0.804,3.702,1.917c0.938,1.112,1.386,2.522,1.263,3.972
	c-0.123,1.45-0.804,2.765-1.916,3.703c-1.113,0.938-2.523,1.386-3.974,1.263c-1.421-0.121-2.719-0.781-3.652-1.858
	c-0.323-0.372-0.887-0.412-1.26-0.09c-0.372,0.323-0.412,0.887-0.089,1.259c1.241,1.43,2.963,2.307,4.85,2.468
	c1.924,0.162,3.798-0.433,5.275-1.677c1.477-1.245,2.38-2.991,2.544-4.916c0.163-1.924-0.432-3.797-1.677-5.274
	s-2.991-2.381-4.916-2.545C9.172,0.777,8.963,0.768,8.755,0.768c-1.702,0-3.333,0.593-4.649,1.702
	c-0.9,0.76-1.587,1.706-2.023,2.765H0.381c-0.144,0-0.275,0.081-0.34,0.209C-0.024,5.572-0.012,5.726,0.073,5.842z"/>
<path fill="#8F8F8F" d="M12.31,10.201c0.081-0.159,0.066-0.353-0.039-0.498L9.387,5.734C9.297,5.61,9.152,5.537,9,5.537
	S8.703,5.609,8.613,5.734L5.729,9.703C5.668,9.786,5.638,9.886,5.638,9.984c0,0.074,0.017,0.148,0.052,0.217
	c0.082,0.16,0.246,0.261,0.426,0.261h5.767C12.063,10.462,12.228,10.361,12.31,10.201z"/>
</svg>
