<?xml version="1.0" encoding="utf-8"?>
<!-- Generator: Adobe Illustrator 16.0.3, SVG Export Plug-In . SVG Version: 6.00 Build 0)  -->
<!DOCTYPE svg PUBLIC "-//W3C//DTD SVG 1.1//EN" "http://www.w3.org/Graphics/SVG/1.1/DTD/svg11.dtd">
<svg version="1.1" id="Layer_1" xmlns="http://www.w3.org/2000/svg" xmlns:xlink="http://www.w3.org/1999/xlink" x="0px" y="0px"
	 width="40px" height="40px" viewBox="0 0 40 40" enable-background="new 0 0 40 40" xml:space="preserve">
<path fill="#9A9A9A" d="M39.818,25.369l-6.392-8.758c-0.179-0.244-0.468-0.391-0.773-0.391c-0.305,0-0.594,0.146-0.772,0.391
	l-6.389,8.758c-0.213,0.293-0.241,0.675-0.078,0.992c0.16,0.319,0.491,0.519,0.851,0.519h3.54c-0.771,1.301-1.753,2.485-2.945,3.487
	c-2.781,2.335-6.311,3.45-9.935,3.145c-3.626-0.309-6.913-2.003-9.257-4.771c-2.345-2.77-3.464-6.281-3.156-9.889
	c0.308-3.612,2.009-6.886,4.791-9.219c2.78-2.334,6.307-3.449,9.934-3.143c3.554,0.302,6.798,1.944,9.132,4.624
	c0.807,0.928,2.215,1.026,3.146,0.225c0.932-0.806,1.031-2.208,0.226-3.134c-3.104-3.558-7.409-5.74-12.126-6.141
	C14.803,1.66,10.119,3.141,6.426,6.238c-3.691,3.1-5.95,7.444-6.359,12.235c-0.41,4.79,1.077,9.451,4.19,13.13
	c3.114,3.674,7.477,5.926,12.29,6.332C17.069,37.979,17.593,38,18.108,38c4.257,0,8.333-1.478,11.624-4.239
	c2.251-1.889,3.966-4.243,5.059-6.881h4.253c0.359,0,0.688-0.199,0.852-0.519C40.06,26.044,40.026,25.662,39.818,25.369z"/>
</svg>
