<?xml version="1.0" encoding="utf-8"?>
<!-- Generator: Adobe Illustrator 16.0.4, SVG Export Plug-In . SVG Version: 6.00 Build 0)  -->
<!DOCTYPE svg PUBLIC "-//W3C//DTD SVG 1.1//EN" "http://www.w3.org/Graphics/SVG/1.1/DTD/svg11.dtd">
<svg version="1.1" id="Layer_1" xmlns="http://www.w3.org/2000/svg" xmlns:xlink="http://www.w3.org/1999/xlink" x="0px" y="0px"
	 width="19px" height="19px" viewBox="0 0 19 19" enable-background="new 0 0 19 19" xml:space="preserve">
<g>
	<path fill="#BCBCBC" d="M15.739,3.032c-0.158-0.065-0.339-0.028-0.461,0.091L3.123,15.285c-0.12,0.121-0.155,0.301-0.09,0.457
		c0.065,0.155,0.22,0.257,0.389,0.257h12.157c0.231,0,0.421-0.187,0.421-0.417V3.418C16,3.249,15.897,3.096,15.739,3.032z
		 M15.156,15.163H4.435l2.221-2.224l1.089,1.082c0.033,0.032,0.076,0.049,0.119,0.049c0.043,0,0.087-0.017,0.12-0.049
		c0.066-0.065,0.066-0.172,0-0.237l-1.09-1.082l0.762-0.764l0.814,0.809c0.033,0.034,0.076,0.05,0.12,0.05
		c0.042,0,0.086-0.016,0.119-0.05c0.066-0.064,0.066-0.17,0-0.235l-0.815-0.81l0.762-0.763l1.097,1.09
		c0.032,0.032,0.076,0.048,0.119,0.048c0.044,0,0.086-0.016,0.119-0.048c0.066-0.067,0.066-0.173,0-0.237l-1.097-1.09L9.654,9.94
		l0.823,0.816c0.033,0.033,0.076,0.049,0.118,0.049c0.044,0,0.087-0.016,0.121-0.049c0.065-0.065,0.065-0.172,0-0.236L9.893,9.702
		l0.762-0.762l1.104,1.098c0.033,0.031,0.076,0.047,0.119,0.047s0.087-0.016,0.12-0.047c0.065-0.067,0.065-0.172,0-0.238
		l-1.105-1.097l0.762-0.762l0.83,0.824c0.033,0.033,0.075,0.049,0.119,0.049s0.086-0.016,0.12-0.049
		c0.065-0.065,0.065-0.172,0-0.237l-0.831-0.825l0.763-0.763c0.001,0.002,0.001,0.003,0.002,0.004l1.108,1.101
		c0.033,0.033,0.076,0.049,0.121,0.049c0.042,0,0.085-0.017,0.118-0.049c0.065-0.065,0.065-0.171,0-0.236l-1.109-1.102
		c-0.002-0.001-0.003-0.002-0.005-0.002l2.266-2.268V15.163z"/>
	<path fill="#BCBCBC" d="M13.737,9.274c-0.096-0.038-0.204-0.018-0.277,0.055l-4.148,4.15c-0.071,0.072-0.094,0.18-0.054,0.272
		c0.039,0.095,0.131,0.156,0.233,0.156h4.149c0.139,0,0.253-0.112,0.253-0.252V9.507C13.894,9.404,13.831,9.313,13.737,9.274z
		 M13.387,13.404h-3.288l3.288-3.289V13.404z"/>
</g>
</svg>
