<?xml version="1.0" encoding="utf-8"?>
<!-- Generator: Adobe Illustrator 16.0.4, SVG Export Plug-In . SVG Version: 6.00 Build 0)  -->
<!DOCTYPE svg PUBLIC "-//W3C//DTD SVG 1.1//EN" "http://www.w3.org/Graphics/SVG/1.1/DTD/svg11.dtd">
<svg version="1.1" id="Layer_1" xmlns="http://www.w3.org/2000/svg" xmlns:xlink="http://www.w3.org/1999/xlink" x="0px" y="0px"
	 width="55px" height="45px" viewBox="0 0 55 45" enable-background="new 0 0 55 45" xml:space="preserve">
<path fill="#231F20" d="M2.399,9h50.206C53.927,9,55,7.907,55,6.559V2.442C55,1.092,53.927,0,52.604,0H2.399
	C1.075,0,0,1.092,0,2.442v4.117C0,7.907,1.075,9,2.399,9z"/>
<path fill="#231F20" d="M2.399,27h50.206C53.927,27,55,25.908,55,24.559v-4.117C55,19.092,53.927,18,52.604,18H2.399
	C1.075,18,0,19.092,0,20.442v4.117C0,25.908,1.075,27,2.399,27z"/>
<path fill="#231F20" d="M2.399,45h50.206C53.927,45,55,43.908,55,42.559v-4.117C55,37.092,53.927,36,52.604,36H2.399
	C1.075,36,0,37.092,0,38.441v4.117C0,43.908,1.075,45,2.399,45z"/>
</svg>
