<?xml version="1.0" encoding="utf-8"?>
<!-- Generator: Adobe Illustrator 16.0.4, SVG Export Plug-In . SVG Version: 6.00 Build 0)  -->
<!DOCTYPE svg PUBLIC "-//W3C//DTD SVG 1.1//EN" "http://www.w3.org/Graphics/SVG/1.1/DTD/svg11.dtd">
<svg version="1.1" id="Layer_1" xmlns="http://www.w3.org/2000/svg" xmlns:xlink="http://www.w3.org/1999/xlink" x="0px" y="0px"
	 width="23px" height="23px" viewBox="0 0 23 23" enable-background="new 0 0 23 23" xml:space="preserve">
<g>
	<path fill="#FFFFFF" d="M11.5,22.5c-6.065,0-11-4.935-11-11s4.935-11,11-11s11,4.935,11,11S17.565,22.5,11.5,22.5z"/>
	<path fill="#848484" d="M11.5,1C17.29,1,22,5.71,22,11.5C22,17.29,17.29,22,11.5,22C5.71,22,1,17.29,1,11.5C1,5.71,5.71,1,11.5,1
		 M11.5,0C5.149,0,0,5.149,0,11.5C0,17.852,5.149,23,11.5,23C17.852,23,23,17.852,23,11.5C23,5.149,17.852,0,11.5,0L11.5,0z"/>
</g>
<path fill="#1D1D1B" d="M15.308,18.19c-0.049,0.049-0.107,0.09-0.174,0.117c-0.2,0.086-0.433,0.036-0.586-0.117l-3.046-3.039
	l-3.048,3.04c-0.153,0.153-0.384,0.201-0.588,0.116c-0.2-0.084-0.331-0.279-0.331-0.497l0-12.621
	c0.001-0.296,0.243-0.538,0.539-0.539l6.853,0.001c0.146,0,0.282,0.056,0.384,0.157s0.157,0.237,0.156,0.383V17.81
	C15.467,17.956,15.406,18.092,15.308,18.19z M8.613,16.51l2.506-2.503c0.211-0.211,0.551-0.208,0.762,0.002l2.509,2.501L14.388,5.73
	L8.613,5.729L8.613,16.51z"/>
</svg>
