<?xml version="1.0" encoding="utf-8"?>
<!-- Generator: Adobe Illustrator 16.0.0, SVG Export Plug-In . SVG Version: 6.00 Build 0)  -->
<!DOCTYPE svg PUBLIC "-//W3C//DTD SVG 1.1//EN" "http://www.w3.org/Graphics/SVG/1.1/DTD/svg11.dtd">
<svg version="1.1" xmlns="http://www.w3.org/2000/svg" xmlns:xlink="http://www.w3.org/1999/xlink" x="0px" y="0px" width="5px"
	 height="62px" viewBox="0 0 5 62" enable-background="new 0 0 5 62" xml:space="preserve">
<g id="Layer_1">
	<rect fill="#878787" width="5" height="62"/>
</g>
<g id="Layer_2">
	<rect x="1" y="1" fill="#FFFFFF" width="3" height="1"/>
	<rect x="1" y="3" fill="#FFFFFF" width="3" height="1"/>
	<rect x="1" y="5" fill="#FFFFFF" width="3" height="1"/>
	<rect x="1" y="7" fill="#FFFFFF" width="3" height="1"/>
	<rect x="1" y="9" fill="#FFFFFF" width="3" height="1"/>
	<rect x="1" y="11" fill="#FFFFFF" width="3" height="1"/>
	<rect x="1" y="13" fill="#FFFFFF" width="3" height="1"/>
	<rect x="1" y="15" fill="#FFFFFF" width="3" height="1"/>
	<rect x="1" y="17" fill="#FFFFFF" width="3" height="1"/>
	<rect x="1" y="19" fill="#FFFFFF" width="3" height="1"/>
	<rect x="1" y="21" fill="#FFFFFF" width="3" height="1"/>
	<rect x="1" y="23" fill="#FFFFFF" width="3" height="1"/>
	<rect x="1" y="25" fill="#FFFFFF" width="3" height="1"/>
	<rect x="1" y="27" fill="#FFFFFF" width="3" height="1"/>
	<rect x="1" y="29" fill="#FFFFFF" width="3" height="1"/>
	<rect x="1" y="31" fill="#FFFFFF" width="3" height="1"/>
	<rect x="1" y="33" fill="#FFFFFF" width="3" height="1"/>
	<rect x="1" y="35" fill="#FFFFFF" width="3" height="1"/>
	<rect x="1" y="37" fill="#FFFFFF" width="3" height="1"/>
	<rect x="1" y="39" fill="#FFFFFF" width="3" height="1"/>
	<rect x="1" y="41" fill="#FFFFFF" width="3" height="1"/>
	<rect x="1" y="43" fill="#FFFFFF" width="3" height="1"/>
	<rect x="1" y="45" fill="#FFFFFF" width="3" height="1"/>
	<rect x="1" y="47" fill="#FFFFFF" width="3" height="1"/>
	<rect x="1" y="49" fill="#FFFFFF" width="3" height="1"/>
	<rect x="1" y="51" fill="#FFFFFF" width="3" height="1"/>
	<rect x="1" y="53" fill="#FFFFFF" width="3" height="1"/>
	<rect x="1" y="55" fill="#FFFFFF" width="3" height="1"/>
	<rect x="1" y="57" fill="#FFFFFF" width="3" height="1"/>
	<rect x="1" y="59" fill="#FFFFFF" width="3" height="1"/>
</g>
</svg>
