<?xml version="1.0" encoding="utf-8"?>
<!-- Generator: Adobe Illustrator 16.0.4, SVG Export Plug-In . SVG Version: 6.00 Build 0)  -->
<!DOCTYPE svg PUBLIC "-//W3C//DTD SVG 1.1//EN" "http://www.w3.org/Graphics/SVG/1.1/DTD/svg11.dtd">
<svg version="1.1" id="Layer_1" xmlns="http://www.w3.org/2000/svg" xmlns:xlink="http://www.w3.org/1999/xlink" x="0px" y="0px"
	 width="14px" height="12px" viewBox="0 0 14 12" enable-background="new 0 0 14 12" xml:space="preserve">
<path fill="#BCBCBC" d="M7.938,8.252l0.247-0.243l-0.5-0.359C6.87,8.445,5.75,8.938,4.517,8.938C2.026,8.938,0,6.934,0,4.469
	S2.026,0,4.517,0c0.141,0,0.281,0.008,0.419,0.021c0.043,0.003,0.086,0.011,0.131,0.015C5.161,0.048,5.255,0.062,5.348,0.08
	c0.049,0.008,0.097,0.018,0.146,0.028c0.09,0.021,0.18,0.044,0.269,0.069C5.805,0.189,5.848,0.2,5.891,0.213
	c0.121,0.039,0.241,0.082,0.357,0.13c0.048,0.019,0.094,0.043,0.141,0.064C6.46,0.44,6.529,0.472,6.6,0.507
	c0.059,0.031,0.115,0.064,0.174,0.096c0.054,0.031,0.103,0.061,0.153,0.093c0.062,0.039,0.125,0.08,0.185,0.121
	C7.148,0.843,7.184,0.87,7.217,0.896c0.239,0.176,0.457,0.375,0.656,0.593C7.881,1.5,7.896,1.512,7.903,1.523
	c0.07,0.077,0.135,0.156,0.199,0.24c0.008,0.008,0.012,0.016,0.02,0.024C8.464,2.238,8.72,2.75,8.871,3.307
	c0.006,0.016,0.01,0.031,0.016,0.049c0.025,0.103,0.049,0.206,0.068,0.312c0.01,0.05,0.018,0.098,0.023,0.147
	c0.014,0.08,0.026,0.158,0.032,0.239c0.016,0.136,0.021,0.275,0.021,0.415c0,0.161-0.012,0.318-0.027,0.475
	C8.998,4.999,8.988,5.053,8.982,5.107C8.965,5.206,8.949,5.305,8.926,5.401C8.912,5.464,8.9,5.527,8.883,5.59
	C8.85,5.719,8.809,5.846,8.764,5.969c-0.065,0.183-0.14,0.359-0.226,0.527l0.226,0.198l0.288,0.25l0.272-0.27h0.129
	c0,0,3.597,2.849,4.093,3.253c0.004,0.002,0.01,0.006,0.012,0.01c0.1,0.081,0.181,0.147,0.233,0.19
	c0.008,0.006,0.012,0.01,0.016,0.015c0.021,0.019,0.041,0.035,0.049,0.044c0.21,0.206,0.13,0.666,0.13,0.666s-0.389,0.667-0.726,1
	c-0.035,0.037-0.076,0.063-0.118,0.085c-0.01,0.006-0.02,0.011-0.029,0.016c-0.041,0.019-0.078,0.032-0.119,0.04l0,0
	C12.962,11.998,12.933,12,12.905,12c-0.008,0-0.016-0.002-0.021-0.002c-0.106-0.004-0.204-0.035-0.282-0.068
	c-0.013-0.005-0.022-0.009-0.034-0.015c-0.023-0.014-0.045-0.024-0.062-0.034c-0.01-0.006-0.014-0.008-0.018-0.012
	c-0.018-0.01-0.029-0.017-0.029-0.017l-4.52-3.358V8.252z M4.517,1.579c-1.61,0-2.921,1.297-2.921,2.89
	c0,1.596,1.311,2.891,2.921,2.891s2.922-1.295,2.922-2.891C7.438,2.876,6.127,1.579,4.517,1.579z"/>
</svg>
