<?xml version="1.0" encoding="utf-8"?>
<!-- Generator: Adobe Illustrator 16.0.4, SVG Export Plug-In . SVG Version: 6.00 Build 0)  -->
<!DOCTYPE svg PUBLIC "-//W3C//DTD SVG 1.1//EN" "http://www.w3.org/Graphics/SVG/1.1/DTD/svg11.dtd">
<svg version="1.1" id="Layer_1" xmlns="http://www.w3.org/2000/svg" xmlns:xlink="http://www.w3.org/1999/xlink" x="0px" y="0px"
	 width="25px" height="25px" viewBox="0 0 25 25" enable-background="new 0 0 25 25" xml:space="preserve">
<path fill="#FFFFFF" d="M21.313,18.082c-0.01-0.012-0.035-0.034-0.062-0.059c-0.005-0.006-0.01-0.012-0.021-0.019
	c-0.067-0.059-0.172-0.146-0.299-0.255c-0.003-0.006-0.011-0.01-0.016-0.013c-0.638-0.54-5.263-4.338-5.263-4.338h-0.165
	l-0.351,0.359l-0.37-0.332l-0.29-0.265c0.11-0.225,0.205-0.46,0.29-0.704c0.058-0.164,0.11-0.333,0.152-0.505
	c0.023-0.083,0.038-0.167,0.056-0.252c0.03-0.129,0.05-0.259,0.073-0.392c0.007-0.072,0.021-0.145,0.029-0.219
	c0.02-0.208,0.035-0.417,0.035-0.632c0-0.187-0.009-0.373-0.028-0.554c-0.007-0.108-0.024-0.212-0.042-0.319
	c-0.007-0.066-0.018-0.13-0.029-0.197c-0.025-0.14-0.056-0.277-0.088-0.414c-0.008-0.024-0.013-0.045-0.021-0.065
	c-0.194-0.742-0.523-1.424-0.963-2.025c-0.01-0.011-0.016-0.021-0.024-0.032c-0.084-0.112-0.167-0.217-0.257-0.32
	c-0.01-0.016-0.029-0.031-0.039-0.045c-0.256-0.292-0.536-0.556-0.844-0.792C12.735,5.66,12.69,5.624,12.644,5.59
	c-0.076-0.055-0.157-0.109-0.237-0.162c-0.066-0.042-0.129-0.082-0.198-0.124c-0.074-0.042-0.147-0.087-0.223-0.128
	c-0.09-0.047-0.179-0.09-0.271-0.133c-0.06-0.028-0.119-0.061-0.181-0.086c-0.149-0.064-0.304-0.122-0.46-0.173
	c-0.054-0.018-0.11-0.032-0.165-0.048c-0.115-0.033-0.23-0.064-0.346-0.092C10.5,4.63,10.439,4.617,10.375,4.606
	c-0.119-0.024-0.24-0.042-0.361-0.057C9.957,4.543,9.901,4.533,9.846,4.528C9.668,4.511,9.488,4.5,9.307,4.5
	C6.104,4.5,3.5,7.172,3.5,10.459c0,3.286,2.604,5.959,5.807,5.959c1.586,0,3.026-0.658,4.075-1.719l0.642,0.48l-0.316,0.323v0.323
	l5.81,4.478c0,0,0.016,0.009,0.038,0.022c0.006,0.005,0.01,0.008,0.023,0.015c0.021,0.013,0.05,0.027,0.079,0.046
	c0.016,0.008,0.028,0.013,0.044,0.02c0.101,0.044,0.227,0.086,0.363,0.091c0.008,0,0.018,0.003,0.027,0.003
	c0.035,0,0.073-0.003,0.113-0.009c0.053-0.011,0.101-0.029,0.153-0.053c0.013-0.008,0.025-0.014,0.037-0.021
	c0.055-0.029,0.107-0.064,0.152-0.113c0.434-0.444,0.933-1.333,0.933-1.333S21.584,18.357,21.313,18.082z M9.307,14.312
	c-2.07,0-3.756-1.727-3.756-3.854c0-2.124,1.686-3.854,3.756-3.854c2.071,0,3.757,1.729,3.757,3.854
	C13.063,12.586,11.377,14.312,9.307,14.312z"/>
</svg>
