<?xml version="1.0" encoding="utf-8"?>
<!-- Generator: Adobe Illustrator 16.0.4, SVG Export Plug-In . SVG Version: 6.00 Build 0)  -->
<!DOCTYPE svg PUBLIC "-//W3C//DTD SVG 1.1//EN" "http://www.w3.org/Graphics/SVG/1.1/DTD/svg11.dtd">
<svg version="1.1" id="Layer_1" xmlns="http://www.w3.org/2000/svg" xmlns:xlink="http://www.w3.org/1999/xlink" x="0px" y="0px"
	 width="16px" height="16px" viewBox="0 0 16 16" enable-background="new 0 0 16 16" xml:space="preserve">
<path fill="#1D1D1D" d="M15.15,7.151l-1.416-0.373c-0.042-0.2-0.094-0.397-0.157-0.588l1.04-1.031
	c0.335-0.354,0.545-0.753,0.311-1.16c-0.234-0.405-0.712-0.424-1.16-0.31l-1.411,0.384c-0.137-0.15-0.28-0.294-0.431-0.429
	l0.385-1.413C12.422,1.756,12.406,1.306,12,1.07c-0.406-0.233-0.829-0.01-1.16,0.312L9.811,2.422
	C9.618,2.359,9.422,2.311,9.224,2.268L8.849,0.848C8.708,0.381,8.468,0,8,0c-0.469,0-0.725,0.405-0.85,0.848L6.778,2.268
	C6.579,2.31,6.381,2.359,6.19,2.421l-1.031-1.04C4.804,1.048,4.406,0.837,4,1.07c-0.406,0.236-0.424,0.713-0.31,1.161l0.385,1.411
	C3.923,3.778,3.779,3.923,3.644,4.073L2.231,3.689C1.756,3.577,1.306,3.593,1.072,4c-0.235,0.406-0.012,0.829,0.31,1.16l1.04,1.03
	C2.359,6.381,2.306,6.578,2.263,6.778L0.848,7.151C0.381,7.291,0,7.531,0,7.999c0,0.469,0.405,0.725,0.848,0.85l1.415,0.373
	c0.043,0.199,0.096,0.396,0.158,0.587l-1.04,1.031c-0.334,0.354-0.545,0.754-0.31,1.16c0.234,0.406,0.712,0.423,1.16,0.31
	l1.413-0.385c0.135,0.151,0.279,0.295,0.431,0.432l-0.385,1.411c-0.112,0.476-0.096,0.926,0.31,1.16
	c0.406,0.235,0.83,0.012,1.16-0.311l1.03-1.04c0.193,0.063,0.39,0.115,0.589,0.159l0.373,1.414C7.291,15.618,7.531,16,8,16
	c0.468,0,0.723-0.405,0.848-0.85l0.373-1.416c0.2-0.042,0.396-0.094,0.589-0.157l1.029,1.04c0.354,0.335,0.754,0.546,1.16,0.311
	c0.406-0.234,0.423-0.712,0.311-1.16l-0.386-1.411c0.151-0.137,0.295-0.28,0.432-0.432l1.411,0.385
	c0.476,0.112,0.926,0.096,1.16-0.311s0.012-0.827-0.311-1.159l-1.04-1.031c0.063-0.191,0.115-0.388,0.157-0.587l1.416-0.373
	c0.468-0.14,0.85-0.38,0.85-0.85C16,7.531,15.595,7.276,15.15,7.151z M7.999,10.424c-1.339,0-2.423-1.085-2.423-2.425
	c0-1.339,1.084-2.423,2.423-2.423s2.425,1.084,2.425,2.423C10.424,9.339,9.338,10.424,7.999,10.424z"/>
</svg>
