<?xml version="1.0" encoding="utf-8"?>
<!-- Generator: Adobe Illustrator 15.1.0, SVG Export Plug-In . SVG Version: 6.00 Build 0)  -->
<!DOCTYPE svg PUBLIC "-//W3C//DTD SVG 1.1//EN" "http://www.w3.org/Graphics/SVG/1.1/DTD/svg11.dtd">
<svg version="1.1" id="Layer_1" xmlns="http://www.w3.org/2000/svg" xmlns:xlink="http://www.w3.org/1999/xlink" x="0px" y="0px"
	 width="19px" height="19px" viewBox="0 0 19 19" enable-background="new 0 0 19 19" xml:space="preserve">
<path fill="#BCBCBC" d="M16.994,4.765c0-1.002-3.357-2.242-7.494-2.242c-4.138,0-7.494,1.24-7.494,2.242
	c0,0.019,0.011,0.036,0.014,0.056H2.006c0,1.763,4.849,5.89,5.73,7.654v3.121c0,0.486,0.791,0.881,1.764,0.881
	s1.763-0.395,1.763-0.881v-3.121c0.883-1.764,5.731-5.891,5.731-7.654H16.98C16.983,4.801,16.994,4.784,16.994,4.765z M9.565,6.569
	c-3.631,0-6.585-0.756-6.585-1.683c0-0.928,2.954-1.872,6.585-1.872c3.63,0,6.585,0.944,6.585,1.872
	C16.15,5.813,13.195,6.569,9.565,6.569z"/>
</svg>
