<?xml version="1.0" encoding="utf-8"?>
<!-- Generator: Adobe Illustrator 16.0.4, SVG Export Plug-In . SVG Version: 6.00 Build 0)  -->
<!DOCTYPE svg PUBLIC "-//W3C//DTD SVG 1.1//EN" "http://www.w3.org/Graphics/SVG/1.1/DTD/svg11.dtd">
<svg version="1.1" id="Layer_1" xmlns="http://www.w3.org/2000/svg" xmlns:xlink="http://www.w3.org/1999/xlink" x="0px" y="0px"
	 width="19px" height="19px" viewBox="0 0 19 19" enable-background="new 0 0 19 19" xml:space="preserve">
<g>
	<path fill="#BCBCBC" d="M16.368,13.771H7.161c-0.349,0-0.632,0.283-0.632,0.632c0,0.348,0.283,0.632,0.632,0.632h9.208
		c0.349,0,0.632-0.284,0.632-0.632C17,14.055,16.717,13.771,16.368,13.771z"/>
	<path fill="#BCBCBC" d="M16.368,8.869H7.161c-0.349,0-0.632,0.282-0.632,0.631c0,0.35,0.283,0.633,0.632,0.633h9.208
		C16.717,10.133,17,9.85,17,9.5C17,9.151,16.717,8.869,16.368,8.869z"/>
	<path fill="#BCBCBC" d="M7.161,5.229h9.208C16.717,5.229,17,4.947,17,4.598c0-0.349-0.283-0.632-0.632-0.632H7.161
		c-0.349,0-0.632,0.283-0.632,0.632C6.529,4.947,6.812,5.229,7.161,5.229z"/>
	<path fill="#BCBCBC" d="M4.199,3.183H2.632C2.283,3.183,2,3.466,2,3.814v1.566c0,0.35,0.283,0.633,0.632,0.633h1.566
		c0.349,0,0.632-0.283,0.632-0.633V3.814C4.831,3.466,4.548,3.183,4.199,3.183z"/>
	<path fill="#BCBCBC" d="M4.199,8.085H2.632C2.283,8.085,2,8.368,2,8.717v1.567c0,0.349,0.283,0.631,0.632,0.631h1.566
		c0.349,0,0.632-0.282,0.632-0.631V8.717C4.831,8.368,4.548,8.085,4.199,8.085z"/>
	<path fill="#BCBCBC" d="M4.199,12.989H2.632C2.283,12.989,2,13.271,2,13.619v1.567c0,0.349,0.283,0.631,0.632,0.631h1.566
		c0.349,0,0.632-0.282,0.632-0.631v-1.567C4.831,13.271,4.548,12.989,4.199,12.989z"/>
</g>
</svg>
