<?xml version="1.0" encoding="utf-8"?>
<!-- Generator: Adobe Illustrator 16.0.4, SVG Export Plug-In . SVG Version: 6.00 Build 0)  -->
<!DOCTYPE svg PUBLIC "-//W3C//DTD SVG 1.1//EN" "http://www.w3.org/Graphics/SVG/1.1/DTD/svg11.dtd">
<svg version="1.1" id="Layer_1" xmlns="http://www.w3.org/2000/svg" xmlns:xlink="http://www.w3.org/1999/xlink" x="0px" y="0px"
	 width="19px" height="19px" viewBox="0 0 19 19" enable-background="new 0 0 19 19" xml:space="preserve">
<rect fill="none" width="19" height="19"/>
<g>
	<path fill="#BCBCBC" d="M8.677,11.19l-0.056-0.37H8.105V3.788C8.105,2.802,7.364,2,6.452,2C5.541,2,4.799,2.802,4.799,3.788v7.033
		H4.281l-0.054,0.372c-0.234,1.635-0.03,2.833,0.604,3.566c0.173,0.198,0.36,0.341,0.544,0.445l0.2,1.515
		C5.597,16.88,5.734,17,5.897,17h1.11c0.163,0,0.3-0.12,0.322-0.281l0.198-1.504c0.191-0.105,0.386-0.254,0.564-0.462
		C8.724,14.021,8.921,12.821,8.677,11.19z M5.881,3.788c0-0.389,0.256-0.706,0.571-0.706c0.315,0,0.571,0.316,0.571,0.706v7.033
		H5.881V3.788z M7.437,14.188c-0.328,0.382-0.745,0.423-0.909,0.423c-0.019,0-0.032,0-0.032,0l0,0l-0.043-0.004l-0.038,0.003
		c-0.042,0.002-0.548,0.022-0.93-0.418c-0.414-0.478-0.567-1.339-0.447-2.505h2.83C7.995,12.852,7.848,13.711,7.437,14.188z"/>
	<path fill="#BCBCBC" d="M10.322,7.81l0.056,0.369h0.517v7.033c0,0.986,0.741,1.788,1.653,1.788c0.911,0,1.652-0.802,1.652-1.788
		V8.179h0.519l0.054-0.372c0.233-1.634,0.03-2.833-0.604-3.565c-0.173-0.199-0.359-0.342-0.545-0.447l-0.199-1.513
		C13.402,2.121,13.265,2,13.102,2h-1.109c-0.163,0-0.3,0.121-0.322,0.282l-0.198,1.502c-0.191,0.106-0.386,0.255-0.564,0.462
		C10.275,4.979,10.078,6.178,10.322,7.81z M13.118,15.212c0,0.39-0.256,0.706-0.57,0.706c-0.316,0-0.572-0.316-0.572-0.706V8.179
		h1.143V15.212z M11.562,4.812c0.328-0.381,0.745-0.422,0.908-0.422c0.019,0,0.031,0,0.033,0l0,0l0.043,0.004l0.037-0.002
		c0.042-0.003,0.548-0.022,0.93,0.417c0.414,0.478,0.567,1.339,0.446,2.505h-2.829C11.005,6.149,11.152,5.289,11.562,4.812z"/>
</g>
</svg>
