<?xml version="1.0" encoding="utf-8"?>
<!-- Generator: Adobe Illustrator 16.0.4, SVG Export Plug-In . SVG Version: 6.00 Build 0)  -->
<!DOCTYPE svg PUBLIC "-//W3C//DTD SVG 1.1//EN" "http://www.w3.org/Graphics/SVG/1.1/DTD/svg11.dtd">
<svg version="1.1" id="Layer_1" xmlns="http://www.w3.org/2000/svg" xmlns:xlink="http://www.w3.org/1999/xlink" x="0px" y="0px"
	 width="20px" height="12px" viewBox="0 0 20 12" enable-background="new 0 0 20 12" xml:space="preserve">
<g>
	<path fill-rule="evenodd" clip-rule="evenodd" fill="#676767" d="M13.021,4.965c-0.014,0.078-0.018,0.145-0.035,0.206
		c-0.302,1.067-0.602,2.135-0.913,3.199c-0.052,0.179-0.14,0.352-0.238,0.512c-0.05,0.078-0.16,0.12-0.291,0.211
		c0.103-0.418,0.041-0.571-0.19-0.612c-0.224-0.038-0.442,0.097-0.485,0.296c-0.044,0.206,0.094,0.398,0.344,0.438
		c0.586,0.093,1.092-0.085,1.424-0.571c0.242-0.356,0.441-0.755,0.581-1.162c0.264-0.762,0.472-1.541,0.694-2.315
		c0.046-0.16,0.116-0.23,0.293-0.228c0.317,0.004,0.354-0.054,0.343-0.425c-0.135-0.012-0.27-0.022-0.405-0.035
		C14.217,3.683,14.723,2.947,15.17,3c-0.021,0.072-0.037,0.142-0.06,0.208c-0.071,0.234,0.003,0.399,0.204,0.448
		c0.209,0.051,0.387-0.079,0.425-0.309c0.049-0.31-0.121-0.533-0.445-0.572c-0.546-0.063-1.023,0.096-1.387,0.505
		c-0.231,0.26-0.398,0.575-0.613,0.85c-0.105,0.135-0.243,0.299-0.391,0.331c-0.285,0.061-0.308,0.222-0.292,0.457
		C12.75,4.935,12.879,4.949,13.021,4.965z"/>
	<path fill-rule="evenodd" clip-rule="evenodd" fill="#676767" d="M12.237,2.386c-1.142,0.295-2.876,1.703-3.223,3.642
		c-0.217,1.205,0.351,3.115,1.097,3.587C9.427,6.811,10.173,4.437,12.237,2.386z"/>
	<path fill-rule="evenodd" clip-rule="evenodd" fill="#676767" d="M16.704,2.337c0.711,2.88-0.063,5.257-2.122,7.326
		C17.708,8.704,18.921,4.55,16.704,2.337z"/>
	<path fill="#676767" d="M7.969,8.526c0.019,0.055,0.007,0.133-0.036,0.211C7.791,9,7.63,9.25,7.458,9.47
		c-0.076,0.1-0.217,0.165-0.334,0.163c-1.592,0-3.184,0-4.777,0c-0.082,0-0.145-0.034-0.17-0.099C2.15,9.47,2.167,9.389,2.213,9.321
		c0.352-0.51,0.613-0.948,0.946-1.481c0.325-0.525,0.722-1.146,1.17-1.807c0.009-0.015,0.015-0.052,0.012-0.065
		c-0.2-0.661-0.361-1.282-0.487-1.808C3.725,3.627,3.629,3.189,3.47,2.679C3.449,2.61,3.462,2.53,3.513,2.467
		c0.051-0.064,0.127-0.1,0.208-0.1c1.593,0,3.185,0,4.777,0c0.117-0.001,0.235,0.063,0.273,0.162
		c0.087,0.222,0.154,0.472,0.197,0.732c0.013,0.08-0.004,0.158-0.044,0.212S8.83,3.547,8.77,3.53
		C8.648,3.496,8.517,3.466,8.375,3.438c-0.103-0.02-0.208-0.112-0.249-0.217C8.105,3.162,8.082,3.104,8.058,3.05
		C8.056,3.046,8.044,3.037,8.037,3.035C7.005,2.91,5.733,2.903,4.624,3.014c0.231,0.702,0.565,1.72,0.935,2.834
		c0.029,0.09,0.006,0.215-0.058,0.305C5.458,6.214,5.415,6.275,5.37,6.337c-0.743,1.047-1.405,1.984-1.875,2.65
		c1.067,0.11,2.344,0.103,3.424-0.023c0.004-0.001,0.02-0.01,0.025-0.015c0.043-0.056,0.088-0.112,0.132-0.17
		c0.079-0.104,0.221-0.197,0.33-0.217c0.152-0.028,0.295-0.059,0.429-0.092C7.902,8.453,7.949,8.474,7.969,8.526z"/>
</g>
</svg>
