<?xml version="1.0" encoding="utf-8"?>
<!-- Generator: Adobe Illustrator 16.0.4, SVG Export Plug-In . SVG Version: 6.00 Build 0)  -->
<!DOCTYPE svg PUBLIC "-//W3C//DTD SVG 1.1//EN" "http://www.w3.org/Graphics/SVG/1.1/DTD/svg11.dtd">
<svg version="1.1" id="Layer_1" xmlns="http://www.w3.org/2000/svg" xmlns:xlink="http://www.w3.org/1999/xlink" x="0px" y="0px"
	 width="78px" height="42px" viewBox="0 0 78 42" enable-background="new 0 0 78 42" xml:space="preserve">
<g>
	<path fill="#4D4D4D" d="M78,21.302C78,32.733,69.051,42,58.012,42H19.988C8.949,42,0,32.733,0,21.302v-0.604
		C0,9.267,8.949,0,19.988,0h38.023C69.051,0,78,9.267,78,20.698V21.302z M73,20.567C73,11.587,66.29,4,57.619,4H19.861
		C11.189,4,4,11.587,4,20.567v0.328C4,29.874,11.189,37,19.861,37h37.758C66.29,37,73,29.874,73,20.895V20.567z"/>
	<ellipse fill="#4485F4" cx="20.873" cy="20.977" rx="14.048" ry="14.546"/>
</g>
</svg>
