<?xml version="1.0" encoding="utf-8"?>
<!-- Generator: Adobe Illustrator 16.0.4, SVG Export Plug-In . SVG Version: 6.00 Build 0)  -->
<!DOCTYPE svg PUBLIC "-//W3C//DTD SVG 1.1//EN" "http://www.w3.org/Graphics/SVG/1.1/DTD/svg11.dtd">
<svg version="1.1" id="Layer_1" xmlns="http://www.w3.org/2000/svg" xmlns:xlink="http://www.w3.org/1999/xlink" x="0px" y="0px"
	 width="19px" height="19px" viewBox="0 0 19 19" enable-background="new 0 0 19 19" xml:space="preserve">
<rect fill="none" width="19" height="19"/>
<g>
	<path fill="#BCBCBC" d="M7.161,14.976c0.208,0,0.375-0.168,0.375-0.376V6.774c0-0.208-0.167-0.376-0.375-0.376
		c-0.206,0-0.375,0.168-0.375,0.376V14.6C6.786,14.808,6.955,14.976,7.161,14.976z"/>
	<path fill="#BCBCBC" d="M9.5,14.976c0.209,0,0.375-0.168,0.375-0.376V6.774c0-0.208-0.166-0.376-0.375-0.376
		c-0.207,0-0.375,0.168-0.375,0.376V14.6C9.125,14.808,9.293,14.976,9.5,14.976z"/>
	<path fill="#BCBCBC" d="M11.84,14.976c0.207,0,0.375-0.168,0.375-0.376V6.774c0-0.208-0.168-0.376-0.375-0.376
		s-0.377,0.168-0.377,0.376V14.6C11.463,14.808,11.633,14.976,11.84,14.976z"/>
	<path fill="#BCBCBC" d="M15.086,3.915h-2.711V3.112C12.375,2.499,11.877,2,11.264,2H7.735C7.122,2,6.624,2.499,6.624,3.112v0.803
		H3.915c-0.416,0-0.751,0.336-0.751,0.751c0,0.415,0.335,0.751,0.751,0.751h0.472v10.956C4.387,16.72,4.667,17,5.015,17h8.972
		c0.346,0,0.627-0.28,0.627-0.627V5.417h0.473c0.414,0,0.75-0.336,0.75-0.751C15.836,4.251,15.5,3.915,15.086,3.915z M7.625,3.112
		c0-0.062,0.049-0.11,0.11-0.11h3.528c0.062,0,0.109,0.049,0.109,0.11v0.803H7.625V3.112z M13.361,15.748H5.639V5.417h7.722V15.748z
		"/>
</g>
</svg>
