<?xml version="1.0" encoding="utf-8"?>
<!-- Generator: Adobe Illustrator 16.0.3, SVG Export Plug-In . SVG Version: 6.00 Build 0)  -->
<!DOCTYPE svg PUBLIC "-//W3C//DTD SVG 1.1//EN" "http://www.w3.org/Graphics/SVG/1.1/DTD/svg11.dtd">
<svg version="1.1" id="Layer_1" xmlns="http://www.w3.org/2000/svg" xmlns:xlink="http://www.w3.org/1999/xlink" x="0px" y="0px"
	 width="40px" height="40px" viewBox="0 0 40 40" enable-background="new 0 0 40 40" xml:space="preserve">
<g>
	<path fill="#9A9A9A" d="M13.726,34.602c0.558,0,1.01-0.447,1.01-1.002V12.731c0-0.553-0.452-1.002-1.01-1.002
		c-0.557,0-1.008,0.449-1.008,1.002V33.6C12.718,34.154,13.169,34.602,13.726,34.602z"/>
	<path fill="#9A9A9A" d="M20.001,34.602c0.556,0,1.008-0.447,1.008-1.002V12.731c0-0.553-0.452-1.002-1.008-1.002
		s-1.008,0.449-1.008,1.002V33.6C18.993,34.154,19.445,34.602,20.001,34.602z"/>
	<path fill="#9A9A9A" d="M26.276,34.602c0.557,0,1.009-0.447,1.009-1.002V12.731c0-0.553-0.452-1.002-1.009-1.002
		c-0.556,0-1.008,0.449-1.008,1.002V33.6C25.269,34.154,25.721,34.602,26.276,34.602z"/>
	<path fill="#9A9A9A" d="M34.986,5.107h-7.27V2.965C27.717,1.33,26.379,0,24.734,0h-9.469c-1.645,0-2.981,1.33-2.981,2.965v2.142
		H5.016C3.901,5.107,3,6.003,3,7.111c0,1.106,0.901,2.004,2.016,2.004h1.267v29.217c0,0.922,0.752,1.668,1.68,1.668H32.04
		c0.925,0,1.679-0.746,1.679-1.668V9.115h1.268C36.098,9.115,37,8.217,37,7.111C37,6.003,36.098,5.107,34.986,5.107z M14.973,2.965
		c0-0.163,0.132-0.294,0.293-0.294h9.469c0.163,0,0.295,0.131,0.295,0.294v2.142H14.973V2.965z M30.357,36.662H9.644V9.115h20.714
		V36.662z"/>
</g>
</svg>
