<?xml version="1.0" encoding="utf-8"?>
<!-- Generator: Adobe Illustrator 16.0.4, SVG Export Plug-In . SVG Version: 6.00 Build 0)  -->
<!DOCTYPE svg PUBLIC "-//W3C//DTD SVG 1.1//EN" "http://www.w3.org/Graphics/SVG/1.1/DTD/svg11.dtd">
<svg version="1.1" id="Layer_1" xmlns="http://www.w3.org/2000/svg" xmlns:xlink="http://www.w3.org/1999/xlink" x="0px" y="0px"
	 width="30px" height="30px" viewBox="0 0 30 30" enable-background="new 0 0 30 30" xml:space="preserve">
<g>
	<path fill="#9A9A9A" d="M11.768,27.191c0.312,0,0.564-0.246,0.564-0.552V15.162c0-0.304-0.252-0.551-0.564-0.551
		c-0.311,0-0.562,0.247-0.562,0.551V26.64C11.206,26.945,11.457,27.191,11.768,27.191z"/>
	<path fill="#9A9A9A" d="M15.275,27.191c0.311,0,0.562-0.246,0.562-0.552V15.162c0-0.304-0.252-0.551-0.562-0.551
		s-0.563,0.247-0.563,0.551V26.64C14.712,26.945,14.965,27.191,15.275,27.191z"/>
	<path fill="#9A9A9A" d="M18.782,27.191c0.31,0,0.562-0.246,0.562-0.552V15.162c0-0.304-0.253-0.551-0.562-0.551
		c-0.311,0-0.563,0.247-0.563,0.551V26.64C18.219,26.945,18.472,27.191,18.782,27.191z"/>
	<path fill="#9A9A9A" d="M23.647,10.969h-4.06V9.791c0-0.899-0.748-1.631-1.668-1.631h-5.291c-0.92,0-1.666,0.732-1.666,1.631v1.178
		H6.9c-0.623,0-1.126,0.493-1.126,1.103c0,0.608,0.503,1.102,1.126,1.102h0.708v16.069c0,0.507,0.421,0.918,0.938,0.918h13.454
		c0.52,0,0.939-0.411,0.939-0.918V13.173h0.707c0.623,0,1.127-0.493,1.127-1.102C24.774,11.462,24.271,10.969,23.647,10.969z
		 M12.465,9.791c0-0.089,0.073-0.161,0.165-0.161h5.291c0.091,0,0.165,0.072,0.165,0.161v1.178h-5.62V9.791z M21.062,28.323H9.487
		v-15.15h11.575V28.323z"/>
</g>
</svg>
