<?xml version="1.0" encoding="utf-8"?>
<!-- Generator: Adobe Illustrator 16.0.4, SVG Export Plug-In . SVG Version: 6.00 Build 0)  -->
<!DOCTYPE svg PUBLIC "-//W3C//DTD SVG 1.1//EN" "http://www.w3.org/Graphics/SVG/1.1/DTD/svg11.dtd">
<svg version="1.1" id="Layer_1" xmlns="http://www.w3.org/2000/svg" xmlns:xlink="http://www.w3.org/1999/xlink" x="0px" y="0px"
	 width="30px" height="30px" viewBox="0 0 30 30" enable-background="new 0 0 30 30" xml:space="preserve">
<g>
	<path fill="#9A9A9A" d="M23.022,10.886h-0.627l-4.693-3.068l5.316-2.758c0.566-0.293,0.772-0.962,0.457-1.493
		c-0.314-0.53-1.03-0.723-1.596-0.429l-3.704,1.92l-0.608-1.027c-0.466-0.783-1.525-1.068-2.363-0.633L10.378,5.9
		C9.541,6.334,9.236,7.325,9.701,8.11l0.609,1.027l-3.705,1.922c-0.567,0.292-0.771,0.961-0.458,1.492
		c0.216,0.361,0.616,0.566,1.03,0.566c0.191,0,0.387-0.045,0.568-0.138l0.268-0.14v16.247C8.014,29.592,8.452,30,8.991,30h14.031
		C23.562,30,24,29.592,24,29.087V11.802C24,11.297,23.562,10.886,23.022,10.886z M11.072,7.399
		c-0.047-0.077-0.017-0.175,0.064-0.219l4.827-2.501c0.082-0.042,0.188-0.013,0.232,0.063l0.61,1.027L11.68,8.426L11.072,7.399z
		 M17.649,7.845l-2.676,3.041h-3.192L17.649,7.845z M22.044,28.171H9.97V12.718h12.074V28.171z"/>
	<path fill="#9A9A9A" d="M12.351,27.041c0.323,0,0.586-0.245,0.586-0.549V15.049c0-0.301-0.263-0.549-0.586-0.549
		c-0.324,0-0.588,0.248-0.588,0.549v11.443C11.763,26.796,12.026,27.041,12.351,27.041z"/>
	<path fill="#9A9A9A" d="M16.007,27.041c0.325,0,0.589-0.245,0.589-0.549V15.049c0-0.301-0.264-0.549-0.589-0.549
		c-0.324,0-0.587,0.248-0.587,0.549v11.443C15.42,26.796,15.683,27.041,16.007,27.041z"/>
	<path fill="#9A9A9A" d="M19.664,27.041c0.325,0,0.587-0.245,0.587-0.549V15.049c0-0.301-0.262-0.549-0.587-0.549
		c-0.323,0-0.587,0.248-0.587,0.549v11.443C19.077,26.796,19.341,27.041,19.664,27.041z"/>
</g>
</svg>
