<?xml version="1.0" encoding="utf-8"?>
<!-- Generator: Adobe Illustrator 16.0.4, SVG Export Plug-In . SVG Version: 6.00 Build 0)  -->
<!DOCTYPE svg PUBLIC "-//W3C//DTD SVG 1.1//EN" "http://www.w3.org/Graphics/SVG/1.1/DTD/svg11.dtd">
<svg version="1.1" id="Layer_1" xmlns="http://www.w3.org/2000/svg" xmlns:xlink="http://www.w3.org/1999/xlink" x="0px" y="0px"
	 width="24px" height="24px" viewBox="0 0 24 24" enable-background="new 0 0 24 24" xml:space="preserve">
<path fill="#BCBCBC" d="M21.825,5.2l-3.026-3.025c-0.233-0.234-0.613-0.234-0.845,0l-0.423,0.423l-0.961,0.96l-0.056,0.055
	L4.222,15.906c-0.057,0.057-0.101,0.126-0.13,0.198l-2.047,5.073c-0.091,0.224-0.04,0.477,0.131,0.647
	C2.29,21.939,2.443,22,2.598,22c0.075,0,0.15-0.016,0.223-0.044l3.223-1.3l1.851-0.748c0.074-0.03,0.141-0.074,0.197-0.131
	l13.68-13.681l0.054-0.052C21.936,5.933,22,5.782,22,5.622C22,5.464,21.936,5.312,21.825,5.2z M7.333,18.846l-1.98,0.801l-1-1.001
	l0.802-1.979l13.22-13.224l1.005,1.003L6.799,17.027c-0.116,0.116-0.116,0.306,0,0.421c0.062,0.06,0.135,0.087,0.211,0.087
	c0.078,0,0.153-0.027,0.212-0.087l12.58-12.58l0.754,0.754L7.333,18.846z"/>
</svg>
