<?xml version="1.0" encoding="utf-8"?>
<!-- Generator: Adobe Illustrator 16.0.4, SVG Export Plug-In . SVG Version: 6.00 Build 0)  -->
<!DOCTYPE svg PUBLIC "-//W3C//DTD SVG 1.1//EN" "http://www.w3.org/Graphics/SVG/1.1/DTD/svg11.dtd">
<svg version="1.1" id="Layer_1" xmlns="http://www.w3.org/2000/svg" xmlns:xlink="http://www.w3.org/1999/xlink" x="0px" y="0px"
	 width="18px" height="28px" viewBox="0 0 18 28" enable-background="new 0 0 18 28" xml:space="preserve">
<g>
	<g>
		<path d="M12.767,13.977h-0.471l-3.52-2.25l3.987-2.024c0.424-0.215,0.579-0.706,0.343-1.095c-0.236-0.388-0.772-0.53-1.197-0.314
			L9.133,9.702L8.676,8.948c-0.35-0.574-1.144-0.784-1.773-0.464l-3.62,1.834c-0.628,0.319-0.856,1.046-0.508,1.621l0.458,0.755
			l-2.779,1.41c-0.425,0.213-0.579,0.704-0.344,1.093c0.162,0.267,0.462,0.418,0.773,0.418c0.143,0,0.29-0.034,0.426-0.104
			l0.201-0.101V27.33C1.51,27.7,1.839,28,2.243,28h10.523c0.405,0,0.733-0.3,0.733-0.67V14.648
			C13.5,14.278,13.172,13.977,12.767,13.977z M3.804,11.42c-0.036-0.058-0.013-0.129,0.048-0.161l3.621-1.835
			c0.061-0.031,0.14-0.01,0.174,0.046l0.457,0.754l-3.845,1.949L3.804,11.42z M8.738,11.746l-2.008,2.23H4.335L8.738,11.746z
			 M12.032,26.659H2.978V15.321h9.055V26.659z"/>
		<path d="M4.763,25.828c0.243,0,0.44-0.178,0.44-0.403v-8.393c0-0.223-0.197-0.404-0.44-0.404c-0.243,0-0.441,0.182-0.441,0.404
			v8.393C4.322,25.65,4.52,25.828,4.763,25.828z"/>
		<path d="M7.504,25.828c0.245,0,0.442-0.178,0.442-0.403v-8.393c0-0.223-0.197-0.404-0.442-0.404c-0.243,0-0.439,0.182-0.439,0.404
			v8.393C7.065,25.65,7.262,25.828,7.504,25.828z"/>
		<path d="M10.248,25.828c0.244,0,0.441-0.178,0.441-0.403v-8.393c0-0.223-0.197-0.404-0.441-0.404c-0.242,0-0.44,0.182-0.44,0.404
			v8.393C9.808,25.65,10.006,25.828,10.248,25.828z"/>
	</g>
	<path d="M4.89,3.55l4.024-3.452c0.161-0.114,0.372-0.13,0.551-0.042c0.046,0.024,0.09,0.055,0.125,0.09
		c0.004,0.002,0.006,0.002,0.008,0.005C9.625,0.178,9.648,0.208,9.669,0.24c0.006,0.008,0.01,0.016,0.015,0.025
		c0.016,0.029,0.029,0.06,0.041,0.091c0.004,0.012,0.007,0.023,0.009,0.035c0.012,0.041,0.02,0.083,0.02,0.125V1.29v0.759
		c0.011,0,0.02-0.005,0.03-0.004C14.544,2.517,18,4.82,18,7.525c0,1.925-1.733,3.681-4.639,4.699
		c-0.034,0.012-0.067,0.018-0.104,0.018c-0.117,0-0.231-0.069-0.279-0.183c-0.062-0.148,0.004-0.315,0.15-0.384
		c1.428-0.658,2.247-1.604,2.247-2.594c0-1.673-2.364-3.036-5.623-3.246v1.587c0,0.194-0.111,0.372-0.288,0.46
		C9.428,7.9,9.391,7.911,9.352,7.92C9.316,7.929,9.283,7.932,9.248,7.933l0,0C9.13,7.938,9.013,7.91,8.914,7.84L4.89,4.387
		C4.753,4.29,4.672,4.135,4.672,3.97C4.672,3.804,4.753,3.648,4.89,3.55z"/>
</g>
</svg>
