<?xml version="1.0" encoding="utf-8"?>
<!-- Generator: Adobe Illustrator 16.0.4, SVG Export Plug-In . SVG Version: 6.00 Build 0)  -->
<!DOCTYPE svg PUBLIC "-//W3C//DTD SVG 1.1//EN" "http://www.w3.org/Graphics/SVG/1.1/DTD/svg11.dtd">
<svg version="1.1" id="Layer_1" xmlns="http://www.w3.org/2000/svg" xmlns:xlink="http://www.w3.org/1999/xlink" x="0px" y="0px"
	 width="19px" height="19px" viewBox="0 0 19 19" enable-background="new 0 0 19 19" xml:space="preserve">
<g>
	<g>
		<path fill="#BCBCBC" d="M16.963,15.672l-1.807-2.804c-0.001-0.001-0.001-0.001-0.001-0.002l-5.106-7.924c0,0,0,0-0.001,0
			c0-0.001,0-0.001,0-0.001L8.221,2.106c-0.072-0.113-0.236-0.14-0.355-0.059L6.521,2.968C6.398,3.051,6.36,3.208,6.435,3.326
			L8.26,6.158c0,0,0.001,0.001,0.001,0.002c0,0,0,0.001,0,0.001l5.11,7.93c0,0.001,0,0.001,0.001,0.001l1.804,2.8
			C15.22,16.959,15.294,17,15.375,17c0.056,0,0.109-0.019,0.156-0.051l1.345-0.92C16.998,15.946,17.036,15.789,16.963,15.672z
			 M8.568,5.652L7.009,3.232l0.904-0.619l1.559,2.419L8.568,5.652z M15.483,16.383l-1.539-2.388l0.904-0.62l1.539,2.39
			L15.483,16.383z"/>
	</g>
	<g>
		<path fill="#BCBCBC" d="M6.782,8.767c0.019,0,0.038-0.006,0.054-0.018C6.867,8.726,6.88,8.685,6.869,8.647L6.58,7.673l0.795-0.614
			c0.031-0.024,0.043-0.065,0.032-0.104C7.395,6.917,7.361,6.892,7.323,6.891L6.324,6.87L5.997,5.909
			C5.983,5.872,5.949,5.847,5.912,5.847c-0.039,0-0.072,0.025-0.085,0.062L5.499,6.87L4.5,6.891
			C4.461,6.892,4.428,6.917,4.416,6.955c-0.011,0.038,0.001,0.08,0.032,0.104l0.796,0.614L4.954,8.647
			C4.942,8.685,4.956,8.726,4.987,8.749C5.018,8.772,5.06,8.773,5.091,8.75l0.82-0.582l0.82,0.582
			C6.747,8.761,6.765,8.767,6.782,8.767z"/>
	</g>
	<g>
		<path fill="#BCBCBC" d="M8.05,10.514l-0.669-0.015L7.162,9.857C7.154,9.832,7.131,9.814,7.105,9.814
			c-0.026,0-0.048,0.018-0.057,0.043L6.83,10.499L6.16,10.514c-0.025,0.001-0.048,0.017-0.056,0.042
			c-0.008,0.027,0,0.054,0.021,0.069l0.533,0.412l-0.193,0.652c-0.007,0.024,0.001,0.053,0.022,0.067
			c0.021,0.016,0.048,0.017,0.069,0.001l0.549-0.389l0.549,0.389c0.01,0.007,0.023,0.012,0.034,0.012
			c0.013,0,0.025-0.005,0.036-0.013c0.021-0.015,0.03-0.043,0.022-0.067l-0.194-0.652l0.533-0.412
			c0.021-0.016,0.029-0.042,0.021-0.069C8.098,10.53,8.076,10.515,8.05,10.514z"/>
	</g>
	<g>
		<path fill="#BCBCBC" d="M4.396,9.299L3.917,9.29L3.76,8.828c-0.006-0.018-0.022-0.03-0.041-0.03c-0.019,0-0.035,0.013-0.041,0.03
			L3.521,9.29l-0.479,0.01c-0.018,0-0.035,0.013-0.04,0.031c-0.006,0.018,0,0.038,0.015,0.049l0.381,0.295l-0.139,0.467
			c-0.004,0.018,0.001,0.037,0.016,0.048c0.015,0.012,0.035,0.012,0.05,0.001l0.394-0.279l0.394,0.279
			c0.008,0.005,0.016,0.009,0.025,0.009s0.018-0.004,0.025-0.01c0.015-0.011,0.021-0.03,0.015-0.048L4.04,9.674l0.382-0.295
			C4.437,9.368,4.442,9.348,4.438,9.33C4.431,9.312,4.416,9.299,4.396,9.299z"/>
	</g>
</g>
</svg>
