<svg width="48" height="48" xmlns="http://www.w3.org/2000/svg" xmlns:svg="http://www.w3.org/2000/svg">
 <g>
  <title>Layer 1</title>
  <path fill="black" id="svg_1" d="m24,9c-10,0 -18.54,6.22 -22,15c3.46,8.78 12,15 22,15s18.54,-6.22 22,-15c-3.46,-8.78 -11.99,-15 -22,-15zm0,25c-5.52,0 -10,-4.48 -10,-10s4.48,-10 10,-10s10,4.48 10,10s-4.48,10 -10,10zm0,-16c-3.31,0 -6,2.69 -6,6s2.69,6 6,6s6,-2.69 6,-6s-2.69,-6 -6,-6z"/>
  <line stroke="#000000" id="svg_2" y2="7" x2="41.5" y1="40.999999" x1="6.5" stroke-width="5" fill="none"/>
 </g>
</svg>
